<?xml version="1.0" encoding="utf-8"?>
<!DOCTYPE svg PUBLIC "-//W3C//DTD SVG 1.1//EN" "http://www.w3.org/Graphics/SVG/1.1/DTD/svg11.dtd">
<svg version="1.1" id="Layer_1" xmlns="http://www.w3.org/2000/svg" xmlns:xlink="http://www.w3.org/1999/xlink" x="0px" y="0px"
width="2277px" height="2277px" viewBox="0 0 2277 2277" enable-background="new 0 0 2277 2277" xml:space="preserve">
<rect x="0" y="0" width="2277" height="2277" fill="rgb(255,255,255)" /><g transform="translate(138,138)"><g transform="translate(759,0) scale(0.138,0.138)"><g transform="" style="fill: rgb(40, 56, 61);">
<path  d="M470,38.5h-47c0,0-29.157,0-66.5,0c-5.711,0-11.611,0-17.63,0c-47.461,0-102.168,0-127.37,0
	C94.65,38.5,0,133.222,0,250c0,116.765,94.65,211.5,211.5,211.5c31.48,0,83.041,0,127.37,0c6.035,0,11.932,0,17.63,0
	c37.686,0,66.5,0,66.5,0h47h30v-423H470z"/>
</g></g><g transform="translate(828,0) scale(0.138,0.138)"><g transform="" style="fill: rgb(40, 56, 61);">
<polygon points="250,38.5 0,38.5 0,461.5 250,461.5 500,461.5 500,38.5 "/>
</g></g><g transform="translate(897,0) scale(0.138,0.138)"><g transform="" style="fill: rgb(40, 56, 61);">
<path d="M288.5,38.5c-42.907,0-123.188,0-171.55,0c-23.857,0-39.95,0-39.95,0H59.5H30H0v423h30h29.5H77c0,0,16.216,0,39.95,0
	c51.332,0,137.84,0,171.55,0C405.301,461.5,500,366.8,500,250C500,133.191,405.301,38.5,288.5,38.5z"/>
</g></g><g transform="translate(1242,0) scale(0.138,0.138)"><g transform="" style="fill: rgb(40, 56, 61);">
<path  d="M470,38.5h-47c0,0-29.157,0-66.5,0c-5.711,0-11.611,0-17.63,0c-47.461,0-102.168,0-127.37,0
	C94.65,38.5,0,133.222,0,250c0,116.765,94.65,211.5,211.5,211.5c31.48,0,83.041,0,127.37,0c6.035,0,11.932,0,17.63,0
	c37.686,0,66.5,0,66.5,0h47h30v-423H470z"/>
</g></g><g transform="translate(1311,0) scale(0.138,0.138)"><g transform="" style="fill: rgb(40, 56, 61);">
<path d="M288.5,38.5c-42.907,0-123.188,0-171.55,0c-23.857,0-39.95,0-39.95,0H59.5H30H0v423h30h29.5H77c0,0,16.216,0,39.95,0
	c51.332,0,137.84,0,171.55,0C405.301,461.5,500,366.8,500,250C500,133.191,405.301,38.5,288.5,38.5z"/>
</g></g><g transform="translate(552,69) scale(0.138,0.138)"><g transform="" style="fill: rgb(40, 56, 61);">
<path  d="M470,38.5h-47c0,0-29.157,0-66.5,0c-5.711,0-11.611,0-17.63,0c-47.461,0-102.168,0-127.37,0
	C94.65,38.5,0,133.222,0,250c0,116.765,94.65,211.5,211.5,211.5c31.48,0,83.041,0,127.37,0c6.035,0,11.932,0,17.63,0
	c37.686,0,66.5,0,66.5,0h47h30v-423H470z"/>
</g></g><g transform="translate(621,69) scale(0.138,0.138)"><g transform="" style="fill: rgb(40, 56, 61);">
<polygon points="250,38.5 0,38.5 0,461.5 250,461.5 500,461.5 500,38.5 "/>
</g></g><g transform="translate(690,69) scale(0.138,0.138)"><g transform="" style="fill: rgb(40, 56, 61);">
<path d="M288.5,38.5c-42.907,0-123.188,0-171.55,0c-23.857,0-39.95,0-39.95,0H59.5H30H0v423h30h29.5H77c0,0,16.216,0,39.95,0
	c51.332,0,137.84,0,171.55,0C405.301,461.5,500,366.8,500,250C500,133.191,405.301,38.5,288.5,38.5z"/>
</g></g><g transform="translate(828,69) scale(0.138,0.138)"><g transform="" style="fill: rgb(40, 56, 61);">
<path  d="M470,38.5h-47c0,0-29.157,0-66.5,0c-5.711,0-11.611,0-17.63,0c-47.461,0-102.168,0-127.37,0
	C94.65,38.5,0,133.222,0,250c0,116.765,94.65,211.5,211.5,211.5c31.48,0,83.041,0,127.37,0c6.035,0,11.932,0,17.63,0
	c37.686,0,66.5,0,66.5,0h47h30v-423H470z"/>
</g></g><g transform="translate(897,69) scale(0.138,0.138)"><g transform="" style="fill: rgb(40, 56, 61);">
<polygon points="250,38.5 0,38.5 0,461.5 250,461.5 500,461.5 500,38.5 "/>
</g></g><g transform="translate(966,69) scale(0.138,0.138)"><g transform="" style="fill: rgb(40, 56, 61);">
<path d="M288.5,38.5c-42.907,0-123.188,0-171.55,0c-23.857,0-39.95,0-39.95,0H59.5H30H0v423h30h29.5H77c0,0,16.216,0,39.95,0
	c51.332,0,137.84,0,171.55,0C405.301,461.5,500,366.8,500,250C500,133.191,405.301,38.5,288.5,38.5z"/>
</g></g><g transform="translate(1173,69) scale(0.138,0.138)"><g transform="" style="fill: rgb(40, 56, 61);">
<path d="M250,38.5c116.813,0,211.5,94.693,211.5,211.5c0,116.813-94.687,211.5-211.5,211.5c-116.807,0-211.5-94.687-211.5-211.5
	C38.5,133.193,133.193,38.5,250,38.5z"/>
</g></g><g transform="translate(1380,69) scale(0.138,0.138)"><g transform="" style="fill: rgb(40, 56, 61);">
<path d="M250,38.5c116.813,0,211.5,94.693,211.5,211.5c0,116.813-94.687,211.5-211.5,211.5c-116.807,0-211.5-94.687-211.5-211.5
	C38.5,133.193,133.193,38.5,250,38.5z"/>
</g></g><g transform="translate(621,138) scale(0.138,0.138)"><g transform="" style="fill: rgb(40, 56, 61);">
<path  d="M470,38.5h-47c0,0-29.157,0-66.5,0c-5.711,0-11.611,0-17.63,0c-47.461,0-102.168,0-127.37,0
	C94.65,38.5,0,133.222,0,250c0,116.765,94.65,211.5,211.5,211.5c31.48,0,83.041,0,127.37,0c6.035,0,11.932,0,17.63,0
	c37.686,0,66.5,0,66.5,0h47h30v-423H470z"/>
</g></g><g transform="translate(690,138) scale(0.138,0.138)"><g transform="" style="fill: rgb(40, 56, 61);">
<polygon points="250,38.5 0,38.5 0,461.5 250,461.5 500,461.5 500,38.5 "/>
</g></g><g transform="translate(759,138) scale(0.138,0.138)"><g transform="" style="fill: rgb(40, 56, 61);">
<polygon points="250,38.5 0,38.5 0,461.5 250,461.5 500,461.5 500,38.5 "/>
</g></g><g transform="translate(828,138) scale(0.138,0.138)"><g transform="" style="fill: rgb(40, 56, 61);">
<polygon points="250,38.5 0,38.5 0,461.5 250,461.5 500,461.5 500,38.5 "/>
</g></g><g transform="translate(897,138) scale(0.138,0.138)"><g transform="" style="fill: rgb(40, 56, 61);">
<path d="M288.5,38.5c-42.907,0-123.188,0-171.55,0c-23.857,0-39.95,0-39.95,0H59.5H30H0v423h30h29.5H77c0,0,16.216,0,39.95,0
	c51.332,0,137.84,0,171.55,0C405.301,461.5,500,366.8,500,250C500,133.191,405.301,38.5,288.5,38.5z"/>
</g></g><g transform="translate(1035,138) scale(0.138,0.138)"><g transform="" style="fill: rgb(40, 56, 61);">
<path d="M250,38.5c116.813,0,211.5,94.693,211.5,211.5c0,116.813-94.687,211.5-211.5,211.5c-116.807,0-211.5-94.687-211.5-211.5
	C38.5,133.193,133.193,38.5,250,38.5z"/>
</g></g><g transform="translate(1173,138) scale(0.138,0.138)"><g transform="" style="fill: rgb(40, 56, 61);">
<path  d="M470,38.5h-47c0,0-29.157,0-66.5,0c-5.711,0-11.611,0-17.63,0c-47.461,0-102.168,0-127.37,0
	C94.65,38.5,0,133.222,0,250c0,116.765,94.65,211.5,211.5,211.5c31.48,0,83.041,0,127.37,0c6.035,0,11.932,0,17.63,0
	c37.686,0,66.5,0,66.5,0h47h30v-423H470z"/>
</g></g><g transform="translate(1242,138) scale(0.138,0.138)"><g transform="" style="fill: rgb(40, 56, 61);">
<polygon points="250,38.5 0,38.5 0,461.5 250,461.5 500,461.5 500,38.5 "/>
</g></g><g transform="translate(1311,138) scale(0.138,0.138)"><g transform="" style="fill: rgb(40, 56, 61);">
<polygon points="250,38.5 0,38.5 0,461.5 250,461.5 500,461.5 500,38.5 "/>
</g></g><g transform="translate(1380,138) scale(0.138,0.138)"><g transform="" style="fill: rgb(40, 56, 61);">
<path d="M288.5,38.5c-42.907,0-123.188,0-171.55,0c-23.857,0-39.95,0-39.95,0H59.5H30H0v423h30h29.5H77c0,0,16.216,0,39.95,0
	c51.332,0,137.84,0,171.55,0C405.301,461.5,500,366.8,500,250C500,133.191,405.301,38.5,288.5,38.5z"/>
</g></g><g transform="translate(828,207) scale(0.138,0.138)"><g transform="" style="fill: rgb(40, 56, 61);">
<path  d="M470,38.5h-47c0,0-29.157,0-66.5,0c-5.711,0-11.611,0-17.63,0c-47.461,0-102.168,0-127.37,0
	C94.65,38.5,0,133.222,0,250c0,116.765,94.65,211.5,211.5,211.5c31.48,0,83.041,0,127.37,0c6.035,0,11.932,0,17.63,0
	c37.686,0,66.5,0,66.5,0h47h30v-423H470z"/>
</g></g><g transform="translate(897,207) scale(0.138,0.138)"><g transform="" style="fill: rgb(40, 56, 61);">
<polygon points="250,38.5 0,38.5 0,461.5 250,461.5 500,461.5 500,38.5 "/>
</g></g><g transform="translate(966,207) scale(0.138,0.138)"><g transform="" style="fill: rgb(40, 56, 61);">
<path d="M288.5,38.5c-42.907,0-123.188,0-171.55,0c-23.857,0-39.95,0-39.95,0H59.5H30H0v423h30h29.5H77c0,0,16.216,0,39.95,0
	c51.332,0,137.84,0,171.55,0C405.301,461.5,500,366.8,500,250C500,133.191,405.301,38.5,288.5,38.5z"/>
</g></g><g transform="translate(1104,207) scale(0.138,0.138)"><g transform="" style="fill: rgb(40, 56, 61);">
<path d="M250,38.5c116.813,0,211.5,94.693,211.5,211.5c0,116.813-94.687,211.5-211.5,211.5c-116.807,0-211.5-94.687-211.5-211.5
	C38.5,133.193,133.193,38.5,250,38.5z"/>
</g></g><g transform="translate(1242,207) scale(0.138,0.138)"><g transform="" style="fill: rgb(40, 56, 61);">
<path  d="M470,38.5h-47c0,0-29.157,0-66.5,0c-5.711,0-11.611,0-17.63,0c-47.461,0-102.168,0-127.37,0
	C94.65,38.5,0,133.222,0,250c0,116.765,94.65,211.5,211.5,211.5c31.48,0,83.041,0,127.37,0c6.035,0,11.932,0,17.63,0
	c37.686,0,66.5,0,66.5,0h47h30v-423H470z"/>
</g></g><g transform="translate(1311,207) scale(0.138,0.138)"><g transform="" style="fill: rgb(40, 56, 61);">
<path d="M288.5,38.5c-42.907,0-123.188,0-171.55,0c-23.857,0-39.95,0-39.95,0H59.5H30H0v423h30h29.5H77c0,0,16.216,0,39.95,0
	c51.332,0,137.84,0,171.55,0C405.301,461.5,500,366.8,500,250C500,133.191,405.301,38.5,288.5,38.5z"/>
</g></g><g transform="translate(621,276) scale(0.138,0.138)"><g transform="" style="fill: rgb(40, 56, 61);">
<path d="M250,38.5c116.813,0,211.5,94.693,211.5,211.5c0,116.813-94.687,211.5-211.5,211.5c-116.807,0-211.5-94.687-211.5-211.5
	C38.5,133.193,133.193,38.5,250,38.5z"/>
</g></g><g transform="translate(759,276) scale(0.138,0.138)"><g transform="" style="fill: rgb(40, 56, 61);">
<path d="M250,38.5c116.813,0,211.5,94.693,211.5,211.5c0,116.813-94.687,211.5-211.5,211.5c-116.807,0-211.5-94.687-211.5-211.5
	C38.5,133.193,133.193,38.5,250,38.5z"/>
</g></g><g transform="translate(897,276) scale(0.138,0.138)"><g transform="" style="fill: rgb(40, 56, 61);">
<path  d="M470,38.5h-47c0,0-29.157,0-66.5,0c-5.711,0-11.611,0-17.63,0c-47.461,0-102.168,0-127.37,0
	C94.65,38.5,0,133.222,0,250c0,116.765,94.65,211.5,211.5,211.5c31.48,0,83.041,0,127.37,0c6.035,0,11.932,0,17.63,0
	c37.686,0,66.5,0,66.5,0h47h30v-423H470z"/>
</g></g><g transform="translate(966,276) scale(0.138,0.138)"><g transform="" style="fill: rgb(40, 56, 61);">
<path d="M288.5,38.5c-42.907,0-123.188,0-171.55,0c-23.857,0-39.95,0-39.95,0H59.5H30H0v423h30h29.5H77c0,0,16.216,0,39.95,0
	c51.332,0,137.84,0,171.55,0C405.301,461.5,500,366.8,500,250C500,133.191,405.301,38.5,288.5,38.5z"/>
</g></g><g transform="translate(1104,276) scale(0.138,0.138)"><g transform="" style="fill: rgb(40, 56, 61);">
<path d="M250,38.5c116.813,0,211.5,94.693,211.5,211.5c0,116.813-94.687,211.5-211.5,211.5c-116.807,0-211.5-94.687-211.5-211.5
	C38.5,133.193,133.193,38.5,250,38.5z"/>
</g></g><g transform="translate(1242,276) scale(0.138,0.138)"><g transform="" style="fill: rgb(40, 56, 61);">
<path d="M250,38.5c116.813,0,211.5,94.693,211.5,211.5c0,116.813-94.687,211.5-211.5,211.5c-116.807,0-211.5-94.687-211.5-211.5
	C38.5,133.193,133.193,38.5,250,38.5z"/>
</g></g><g transform="translate(552,345) scale(0.138,0.138)"><g transform="" style="fill: rgb(40, 56, 61);">
<path d="M250,38.5c116.813,0,211.5,94.693,211.5,211.5c0,116.813-94.687,211.5-211.5,211.5c-116.807,0-211.5-94.687-211.5-211.5
	C38.5,133.193,133.193,38.5,250,38.5z"/>
</g></g><g transform="translate(828,345) scale(0.138,0.138)"><g transform="" style="fill: rgb(40, 56, 61);">
<path  d="M470,38.5h-47c0,0-29.157,0-66.5,0c-5.711,0-11.611,0-17.63,0c-47.461,0-102.168,0-127.37,0
	C94.65,38.5,0,133.222,0,250c0,116.765,94.65,211.5,211.5,211.5c31.48,0,83.041,0,127.37,0c6.035,0,11.932,0,17.63,0
	c37.686,0,66.5,0,66.5,0h47h30v-423H470z"/>
</g></g><g transform="translate(897,345) scale(0.138,0.138)"><g transform="" style="fill: rgb(40, 56, 61);">
<path d="M288.5,38.5c-42.907,0-123.188,0-171.55,0c-23.857,0-39.95,0-39.95,0H59.5H30H0v423h30h29.5H77c0,0,16.216,0,39.95,0
	c51.332,0,137.84,0,171.55,0C405.301,461.5,500,366.8,500,250C500,133.191,405.301,38.5,288.5,38.5z"/>
</g></g><g transform="translate(1035,345) scale(0.138,0.138)"><g transform="" style="fill: rgb(40, 56, 61);">
<path d="M250,38.5c116.813,0,211.5,94.693,211.5,211.5c0,116.813-94.687,211.5-211.5,211.5c-116.807,0-211.5-94.687-211.5-211.5
	C38.5,133.193,133.193,38.5,250,38.5z"/>
</g></g><g transform="translate(1242,345) scale(0.138,0.138)"><g transform="" style="fill: rgb(40, 56, 61);">
<path  d="M470,38.5h-47c0,0-29.157,0-66.5,0c-5.711,0-11.611,0-17.63,0c-47.461,0-102.168,0-127.37,0
	C94.65,38.5,0,133.222,0,250c0,116.765,94.65,211.5,211.5,211.5c31.48,0,83.041,0,127.37,0c6.035,0,11.932,0,17.63,0
	c37.686,0,66.5,0,66.5,0h47h30v-423H470z"/>
</g></g><g transform="translate(1311,345) scale(0.138,0.138)"><g transform="" style="fill: rgb(40, 56, 61);">
<path d="M288.5,38.5c-42.907,0-123.188,0-171.55,0c-23.857,0-39.95,0-39.95,0H59.5H30H0v423h30h29.5H77c0,0,16.216,0,39.95,0
	c51.332,0,137.84,0,171.55,0C405.301,461.5,500,366.8,500,250C500,133.191,405.301,38.5,288.5,38.5z"/>
</g></g><g transform="translate(552,414) scale(0.138,0.138)"><g transform="" style="fill: rgb(40, 56, 61);">
<path d="M250,38.5c116.813,0,211.5,94.693,211.5,211.5c0,116.813-94.687,211.5-211.5,211.5c-116.807,0-211.5-94.687-211.5-211.5
	C38.5,133.193,133.193,38.5,250,38.5z"/>
</g></g><g transform="translate(690,414) scale(0.138,0.138)"><g transform="" style="fill: rgb(40, 56, 61);">
<path d="M250,38.5c116.813,0,211.5,94.693,211.5,211.5c0,116.813-94.687,211.5-211.5,211.5c-116.807,0-211.5-94.687-211.5-211.5
	C38.5,133.193,133.193,38.5,250,38.5z"/>
</g></g><g transform="translate(828,414) scale(0.138,0.138)"><g transform="" style="fill: rgb(40, 56, 61);">
<path d="M250,38.5c116.813,0,211.5,94.693,211.5,211.5c0,116.813-94.687,211.5-211.5,211.5c-116.807,0-211.5-94.687-211.5-211.5
	C38.5,133.193,133.193,38.5,250,38.5z"/>
</g></g><g transform="translate(966,414) scale(0.138,0.138)"><g transform="" style="fill: rgb(40, 56, 61);">
<path d="M250,38.5c116.813,0,211.5,94.693,211.5,211.5c0,116.813-94.687,211.5-211.5,211.5c-116.807,0-211.5-94.687-211.5-211.5
	C38.5,133.193,133.193,38.5,250,38.5z"/>
</g></g><g transform="translate(1104,414) scale(0.138,0.138)"><g transform="" style="fill: rgb(40, 56, 61);">
<path d="M250,38.5c116.813,0,211.5,94.693,211.5,211.5c0,116.813-94.687,211.5-211.5,211.5c-116.807,0-211.5-94.687-211.5-211.5
	C38.5,133.193,133.193,38.5,250,38.5z"/>
</g></g><g transform="translate(1242,414) scale(0.138,0.138)"><g transform="" style="fill: rgb(40, 56, 61);">
<path d="M250,38.5c116.813,0,211.5,94.693,211.5,211.5c0,116.813-94.687,211.5-211.5,211.5c-116.807,0-211.5-94.687-211.5-211.5
	C38.5,133.193,133.193,38.5,250,38.5z"/>
</g></g><g transform="translate(1380,414) scale(0.138,0.138)"><g transform="" style="fill: rgb(40, 56, 61);">
<path d="M250,38.5c116.813,0,211.5,94.693,211.5,211.5c0,116.813-94.687,211.5-211.5,211.5c-116.807,0-211.5-94.687-211.5-211.5
	C38.5,133.193,133.193,38.5,250,38.5z"/>
</g></g><g transform="translate(552,483) scale(0.138,0.138)"><g transform="" style="fill: rgb(40, 56, 61);">
<path d="M250,38.5c116.813,0,211.5,94.693,211.5,211.5c0,116.813-94.687,211.5-211.5,211.5c-116.807,0-211.5-94.687-211.5-211.5
	C38.5,133.193,133.193,38.5,250,38.5z"/>
</g></g><g transform="translate(759,483) scale(0.138,0.138)"><g transform="" style="fill: rgb(40, 56, 61);">
<path d="M250,38.5c116.813,0,211.5,94.693,211.5,211.5c0,116.813-94.687,211.5-211.5,211.5c-116.807,0-211.5-94.687-211.5-211.5
	C38.5,133.193,133.193,38.5,250,38.5z"/>
</g></g><g transform="translate(897,483) scale(0.138,0.138)"><g transform="" style="fill: rgb(40, 56, 61);">
<path d="M250,38.5c116.813,0,211.5,94.693,211.5,211.5c0,116.813-94.687,211.5-211.5,211.5c-116.807,0-211.5-94.687-211.5-211.5
	C38.5,133.193,133.193,38.5,250,38.5z"/>
</g></g><g transform="translate(1035,483) scale(0.138,0.138)"><g transform="" style="fill: rgb(40, 56, 61);">
<path  d="M470,38.5h-47c0,0-29.157,0-66.5,0c-5.711,0-11.611,0-17.63,0c-47.461,0-102.168,0-127.37,0
	C94.65,38.5,0,133.222,0,250c0,116.765,94.65,211.5,211.5,211.5c31.48,0,83.041,0,127.37,0c6.035,0,11.932,0,17.63,0
	c37.686,0,66.5,0,66.5,0h47h30v-423H470z"/>
</g></g><g transform="translate(1104,483) scale(0.138,0.138)"><g transform="" style="fill: rgb(40, 56, 61);">
<polygon points="250,38.5 0,38.5 0,461.5 250,461.5 500,461.5 500,38.5 "/>
</g></g><g transform="translate(1173,483) scale(0.138,0.138)"><g transform="" style="fill: rgb(40, 56, 61);">
<polygon points="250,38.5 0,38.5 0,461.5 250,461.5 500,461.5 500,38.5 "/>
</g></g><g transform="translate(1242,483) scale(0.138,0.138)"><g transform="" style="fill: rgb(40, 56, 61);">
<path d="M288.5,38.5c-42.907,0-123.188,0-171.55,0c-23.857,0-39.95,0-39.95,0H59.5H30H0v423h30h29.5H77c0,0,16.216,0,39.95,0
	c51.332,0,137.84,0,171.55,0C405.301,461.5,500,366.8,500,250C500,133.191,405.301,38.5,288.5,38.5z"/>
</g></g><g transform="translate(276,552) scale(0.138,0.138)"><g transform="" style="fill: rgb(40, 56, 61);">
<path  d="M470,38.5h-47c0,0-29.157,0-66.5,0c-5.711,0-11.611,0-17.63,0c-47.461,0-102.168,0-127.37,0
	C94.65,38.5,0,133.222,0,250c0,116.765,94.65,211.5,211.5,211.5c31.48,0,83.041,0,127.37,0c6.035,0,11.932,0,17.63,0
	c37.686,0,66.5,0,66.5,0h47h30v-423H470z"/>
</g></g><g transform="translate(345,552) scale(0.138,0.138)"><g transform="" style="fill: rgb(40, 56, 61);">
<polygon points="250,38.5 0,38.5 0,461.5 250,461.5 500,461.5 500,38.5 "/>
</g></g><g transform="translate(414,552) scale(0.138,0.138)"><g transform="" style="fill: rgb(40, 56, 61);">
<polygon points="250,38.5 0,38.5 0,461.5 250,461.5 500,461.5 500,38.5 "/>
</g></g><g transform="translate(483,552) scale(0.138,0.138)"><g transform="" style="fill: rgb(40, 56, 61);">
<path d="M288.5,38.5c-42.907,0-123.188,0-171.55,0c-23.857,0-39.95,0-39.95,0H59.5H30H0v423h30h29.5H77c0,0,16.216,0,39.95,0
	c51.332,0,137.84,0,171.55,0C405.301,461.5,500,366.8,500,250C500,133.191,405.301,38.5,288.5,38.5z"/>
</g></g><g transform="translate(621,552) scale(0.138,0.138)"><g transform="" style="fill: rgb(40, 56, 61);">
<path  d="M470,38.5h-47c0,0-29.157,0-66.5,0c-5.711,0-11.611,0-17.63,0c-47.461,0-102.168,0-127.37,0
	C94.65,38.5,0,133.222,0,250c0,116.765,94.65,211.5,211.5,211.5c31.48,0,83.041,0,127.37,0c6.035,0,11.932,0,17.63,0
	c37.686,0,66.5,0,66.5,0h47h30v-423H470z"/>
</g></g><g transform="translate(690,552) scale(0.138,0.138)"><g transform="" style="fill: rgb(40, 56, 61);">
<path d="M288.5,38.5c-42.907,0-123.188,0-171.55,0c-23.857,0-39.95,0-39.95,0H59.5H30H0v423h30h29.5H77c0,0,16.216,0,39.95,0
	c51.332,0,137.84,0,171.55,0C405.301,461.5,500,366.8,500,250C500,133.191,405.301,38.5,288.5,38.5z"/>
</g></g><g transform="translate(966,552) scale(0.138,0.138)"><g transform="" style="fill: rgb(40, 56, 61);">
<path d="M250,38.5c116.813,0,211.5,94.693,211.5,211.5c0,116.813-94.687,211.5-211.5,211.5c-116.807,0-211.5-94.687-211.5-211.5
	C38.5,133.193,133.193,38.5,250,38.5z"/>
</g></g><g transform="translate(1104,552) scale(0.138,0.138)"><g transform="" style="fill: rgb(40, 56, 61);">
<path d="M250,38.5c116.813,0,211.5,94.693,211.5,211.5c0,116.813-94.687,211.5-211.5,211.5c-116.807,0-211.5-94.687-211.5-211.5
	C38.5,133.193,133.193,38.5,250,38.5z"/>
</g></g><g transform="translate(1242,552) scale(0.138,0.138)"><g transform="" style="fill: rgb(40, 56, 61);">
<path  d="M470,38.5h-47c0,0-29.157,0-66.5,0c-5.711,0-11.611,0-17.63,0c-47.461,0-102.168,0-127.37,0
	C94.65,38.5,0,133.222,0,250c0,116.765,94.65,211.5,211.5,211.5c31.48,0,83.041,0,127.37,0c6.035,0,11.932,0,17.63,0
	c37.686,0,66.5,0,66.5,0h47h30v-423H470z"/>
</g></g><g transform="translate(1311,552) scale(0.138,0.138)"><g transform="" style="fill: rgb(40, 56, 61);">
<polygon points="250,38.5 0,38.5 0,461.5 250,461.5 500,461.5 500,38.5 "/>
</g></g><g transform="translate(1380,552) scale(0.138,0.138)"><g transform="" style="fill: rgb(40, 56, 61);">
<path d="M288.5,38.5c-42.907,0-123.188,0-171.55,0c-23.857,0-39.95,0-39.95,0H59.5H30H0v423h30h29.5H77c0,0,16.216,0,39.95,0
	c51.332,0,137.84,0,171.55,0C405.301,461.5,500,366.8,500,250C500,133.191,405.301,38.5,288.5,38.5z"/>
</g></g><g transform="translate(1518,552) scale(0.138,0.138)"><g transform="" style="fill: rgb(40, 56, 61);">
<path  d="M470,38.5h-47c0,0-29.157,0-66.5,0c-5.711,0-11.611,0-17.63,0c-47.461,0-102.168,0-127.37,0
	C94.65,38.5,0,133.222,0,250c0,116.765,94.65,211.5,211.5,211.5c31.48,0,83.041,0,127.37,0c6.035,0,11.932,0,17.63,0
	c37.686,0,66.5,0,66.5,0h47h30v-423H470z"/>
</g></g><g transform="translate(1587,552) scale(0.138,0.138)"><g transform="" style="fill: rgb(40, 56, 61);">
<path d="M288.5,38.5c-42.907,0-123.188,0-171.55,0c-23.857,0-39.95,0-39.95,0H59.5H30H0v423h30h29.5H77c0,0,16.216,0,39.95,0
	c51.332,0,137.84,0,171.55,0C405.301,461.5,500,366.8,500,250C500,133.191,405.301,38.5,288.5,38.5z"/>
</g></g><g transform="translate(1863,552) scale(0.138,0.138)"><g transform="" style="fill: rgb(40, 56, 61);">
<path d="M250,38.5c116.813,0,211.5,94.693,211.5,211.5c0,116.813-94.687,211.5-211.5,211.5c-116.807,0-211.5-94.687-211.5-211.5
	C38.5,133.193,133.193,38.5,250,38.5z"/>
</g></g><g transform="translate(0,621) scale(0.138,0.138)"><g transform="" style="fill: rgb(40, 56, 61);">
<path d="M250,38.5c116.813,0,211.5,94.693,211.5,211.5c0,116.813-94.687,211.5-211.5,211.5c-116.807,0-211.5-94.687-211.5-211.5
	C38.5,133.193,133.193,38.5,250,38.5z"/>
</g></g><g transform="translate(207,621) scale(0.138,0.138)"><g transform="" style="fill: rgb(40, 56, 61);">
<path  d="M470,38.5h-47c0,0-29.157,0-66.5,0c-5.711,0-11.611,0-17.63,0c-47.461,0-102.168,0-127.37,0
	C94.65,38.5,0,133.222,0,250c0,116.765,94.65,211.5,211.5,211.5c31.48,0,83.041,0,127.37,0c6.035,0,11.932,0,17.63,0
	c37.686,0,66.5,0,66.5,0h47h30v-423H470z"/>
</g></g><g transform="translate(276,621) scale(0.138,0.138)"><g transform="" style="fill: rgb(40, 56, 61);">
<path d="M288.5,38.5c-42.907,0-123.188,0-171.55,0c-23.857,0-39.95,0-39.95,0H59.5H30H0v423h30h29.5H77c0,0,16.216,0,39.95,0
	c51.332,0,137.84,0,171.55,0C405.301,461.5,500,366.8,500,250C500,133.191,405.301,38.5,288.5,38.5z"/>
</g></g><g transform="translate(759,621) scale(0.138,0.138)"><g transform="" style="fill: rgb(40, 56, 61);">
<path d="M250,38.5c116.813,0,211.5,94.693,211.5,211.5c0,116.813-94.687,211.5-211.5,211.5c-116.807,0-211.5-94.687-211.5-211.5
	C38.5,133.193,133.193,38.5,250,38.5z"/>
</g></g><g transform="translate(897,621) scale(0.138,0.138)"><g transform="" style="fill: rgb(40, 56, 61);">
<path d="M250,38.5c116.813,0,211.5,94.693,211.5,211.5c0,116.813-94.687,211.5-211.5,211.5c-116.807,0-211.5-94.687-211.5-211.5
	C38.5,133.193,133.193,38.5,250,38.5z"/>
</g></g><g transform="translate(1035,621) scale(0.138,0.138)"><g transform="" style="fill: rgb(40, 56, 61);">
<path  d="M470,38.5h-47c0,0-29.157,0-66.5,0c-5.711,0-11.611,0-17.63,0c-47.461,0-102.168,0-127.37,0
	C94.65,38.5,0,133.222,0,250c0,116.765,94.65,211.5,211.5,211.5c31.48,0,83.041,0,127.37,0c6.035,0,11.932,0,17.63,0
	c37.686,0,66.5,0,66.5,0h47h30v-423H470z"/>
</g></g><g transform="translate(1104,621) scale(0.138,0.138)"><g transform="" style="fill: rgb(40, 56, 61);">
<polygon points="250,38.5 0,38.5 0,461.5 250,461.5 500,461.5 500,38.5 "/>
</g></g><g transform="translate(1173,621) scale(0.138,0.138)"><g transform="" style="fill: rgb(40, 56, 61);">
<path d="M288.5,38.5c-42.907,0-123.188,0-171.55,0c-23.857,0-39.95,0-39.95,0H59.5H30H0v423h30h29.5H77c0,0,16.216,0,39.95,0
	c51.332,0,137.84,0,171.55,0C405.301,461.5,500,366.8,500,250C500,133.191,405.301,38.5,288.5,38.5z"/>
</g></g><g transform="translate(1311,621) scale(0.138,0.138)"><g transform="" style="fill: rgb(40, 56, 61);">
<path  d="M470,38.5h-47c0,0-29.157,0-66.5,0c-5.711,0-11.611,0-17.63,0c-47.461,0-102.168,0-127.37,0
	C94.65,38.5,0,133.222,0,250c0,116.765,94.65,211.5,211.5,211.5c31.48,0,83.041,0,127.37,0c6.035,0,11.932,0,17.63,0
	c37.686,0,66.5,0,66.5,0h47h30v-423H470z"/>
</g></g><g transform="translate(1380,621) scale(0.138,0.138)"><g transform="" style="fill: rgb(40, 56, 61);">
<path d="M288.5,38.5c-42.907,0-123.188,0-171.55,0c-23.857,0-39.95,0-39.95,0H59.5H30H0v423h30h29.5H77c0,0,16.216,0,39.95,0
	c51.332,0,137.84,0,171.55,0C405.301,461.5,500,366.8,500,250C500,133.191,405.301,38.5,288.5,38.5z"/>
</g></g><g transform="translate(1518,621) scale(0.138,0.138)"><g transform="" style="fill: rgb(40, 56, 61);">
<path d="M250,38.5c116.813,0,211.5,94.693,211.5,211.5c0,116.813-94.687,211.5-211.5,211.5c-116.807,0-211.5-94.687-211.5-211.5
	C38.5,133.193,133.193,38.5,250,38.5z"/>
</g></g><g transform="translate(1656,621) scale(0.138,0.138)"><g transform="" style="fill: rgb(40, 56, 61);">
<path  d="M470,38.5h-47c0,0-29.157,0-66.5,0c-5.711,0-11.611,0-17.63,0c-47.461,0-102.168,0-127.37,0
	C94.65,38.5,0,133.222,0,250c0,116.765,94.65,211.5,211.5,211.5c31.48,0,83.041,0,127.37,0c6.035,0,11.932,0,17.63,0
	c37.686,0,66.5,0,66.5,0h47h30v-423H470z"/>
</g></g><g transform="translate(1725,621) scale(0.138,0.138)"><g transform="" style="fill: rgb(40, 56, 61);">
<polygon points="250,38.5 0,38.5 0,461.5 250,461.5 500,461.5 500,38.5 "/>
</g></g><g transform="translate(1794,621) scale(0.138,0.138)"><g transform="" style="fill: rgb(40, 56, 61);">
<polygon points="250,38.5 0,38.5 0,461.5 250,461.5 500,461.5 500,38.5 "/>
</g></g><g transform="translate(1863,621) scale(0.138,0.138)"><g transform="" style="fill: rgb(40, 56, 61);">
<polygon points="250,38.5 0,38.5 0,461.5 250,461.5 500,461.5 500,38.5 "/>
</g></g><g transform="translate(1932,621) scale(0.138,0.138)"><g transform="" style="fill: rgb(40, 56, 61);">
<path d="M288.5,38.5c-42.907,0-123.188,0-171.55,0c-23.857,0-39.95,0-39.95,0H59.5H30H0v423h30h29.5H77c0,0,16.216,0,39.95,0
	c51.332,0,137.84,0,171.55,0C405.301,461.5,500,366.8,500,250C500,133.191,405.301,38.5,288.5,38.5z"/>
</g></g><g transform="translate(0,690) scale(0.138,0.138)"><g transform="" style="fill: rgb(40, 56, 61);">
<path d="M250,38.5c116.813,0,211.5,94.693,211.5,211.5c0,116.813-94.687,211.5-211.5,211.5c-116.807,0-211.5-94.687-211.5-211.5
	C38.5,133.193,133.193,38.5,250,38.5z"/>
</g></g><g transform="translate(207,690) scale(0.138,0.138)"><g transform="" style="fill: rgb(40, 56, 61);">
<path  d="M470,38.5h-47c0,0-29.157,0-66.5,0c-5.711,0-11.611,0-17.63,0c-47.461,0-102.168,0-127.37,0
	C94.65,38.5,0,133.222,0,250c0,116.765,94.65,211.5,211.5,211.5c31.48,0,83.041,0,127.37,0c6.035,0,11.932,0,17.63,0
	c37.686,0,66.5,0,66.5,0h47h30v-423H470z"/>
</g></g><g transform="translate(276,690) scale(0.138,0.138)"><g transform="" style="fill: rgb(40, 56, 61);">
<polygon points="250,38.5 0,38.5 0,461.5 250,461.5 500,461.5 500,38.5 "/>
</g></g><g transform="translate(345,690) scale(0.138,0.138)"><g transform="" style="fill: rgb(40, 56, 61);">
<polygon points="250,38.5 0,38.5 0,461.5 250,461.5 500,461.5 500,38.5 "/>
</g></g><g transform="translate(414,690) scale(0.138,0.138)"><g transform="" style="fill: rgb(40, 56, 61);">
<polygon points="250,38.5 0,38.5 0,461.5 250,461.5 500,461.5 500,38.5 "/>
</g></g><g transform="translate(483,690) scale(0.138,0.138)"><g transform="" style="fill: rgb(40, 56, 61);">
<path d="M288.5,38.5c-42.907,0-123.188,0-171.55,0c-23.857,0-39.95,0-39.95,0H59.5H30H0v423h30h29.5H77c0,0,16.216,0,39.95,0
	c51.332,0,137.84,0,171.55,0C405.301,461.5,500,366.8,500,250C500,133.191,405.301,38.5,288.5,38.5z"/>
</g></g><g transform="translate(759,690) scale(0.138,0.138)"><g transform="" style="fill: rgb(40, 56, 61);">
<path d="M250,38.5c116.813,0,211.5,94.693,211.5,211.5c0,116.813-94.687,211.5-211.5,211.5c-116.807,0-211.5-94.687-211.5-211.5
	C38.5,133.193,133.193,38.5,250,38.5z"/>
</g></g><g transform="translate(1173,690) scale(0.138,0.138)"><g transform="" style="fill: rgb(40, 56, 61);">
<path  d="M470,38.5h-47c0,0-29.157,0-66.5,0c-5.711,0-11.611,0-17.63,0c-47.461,0-102.168,0-127.37,0
	C94.65,38.5,0,133.222,0,250c0,116.765,94.65,211.5,211.5,211.5c31.48,0,83.041,0,127.37,0c6.035,0,11.932,0,17.63,0
	c37.686,0,66.5,0,66.5,0h47h30v-423H470z"/>
</g></g><g transform="translate(1242,690) scale(0.138,0.138)"><g transform="" style="fill: rgb(40, 56, 61);">
<path d="M288.5,38.5c-42.907,0-123.188,0-171.55,0c-23.857,0-39.95,0-39.95,0H59.5H30H0v423h30h29.5H77c0,0,16.216,0,39.95,0
	c51.332,0,137.84,0,171.55,0C405.301,461.5,500,366.8,500,250C500,133.191,405.301,38.5,288.5,38.5z"/>
</g></g><g transform="translate(1380,690) scale(0.138,0.138)"><g transform="" style="fill: rgb(40, 56, 61);">
<path  d="M470,38.5h-47c0,0-29.157,0-66.5,0c-5.711,0-11.611,0-17.63,0c-47.461,0-102.168,0-127.37,0
	C94.65,38.5,0,133.222,0,250c0,116.765,94.65,211.5,211.5,211.5c31.48,0,83.041,0,127.37,0c6.035,0,11.932,0,17.63,0
	c37.686,0,66.5,0,66.5,0h47h30v-423H470z"/>
</g></g><g transform="translate(1449,690) scale(0.138,0.138)"><g transform="" style="fill: rgb(40, 56, 61);">
<path d="M288.5,38.5c-42.907,0-123.188,0-171.55,0c-23.857,0-39.95,0-39.95,0H59.5H30H0v423h30h29.5H77c0,0,16.216,0,39.95,0
	c51.332,0,137.84,0,171.55,0C405.301,461.5,500,366.8,500,250C500,133.191,405.301,38.5,288.5,38.5z"/>
</g></g><g transform="translate(1587,690) scale(0.138,0.138)"><g transform="" style="fill: rgb(40, 56, 61);">
<path d="M250,38.5c116.813,0,211.5,94.693,211.5,211.5c0,116.813-94.687,211.5-211.5,211.5c-116.807,0-211.5-94.687-211.5-211.5
	C38.5,133.193,133.193,38.5,250,38.5z"/>
</g></g><g transform="translate(1794,690) scale(0.138,0.138)"><g transform="" style="fill: rgb(40, 56, 61);">
<path d="M250,38.5c116.813,0,211.5,94.693,211.5,211.5c0,116.813-94.687,211.5-211.5,211.5c-116.807,0-211.5-94.687-211.5-211.5
	C38.5,133.193,133.193,38.5,250,38.5z"/>
</g></g><g transform="translate(1932,690) scale(0.138,0.138)"><g transform="" style="fill: rgb(40, 56, 61);">
<path d="M250,38.5c116.813,0,211.5,94.693,211.5,211.5c0,116.813-94.687,211.5-211.5,211.5c-116.807,0-211.5-94.687-211.5-211.5
	C38.5,133.193,133.193,38.5,250,38.5z"/>
</g></g><g transform="translate(276,759) scale(0.138,0.138)"><g transform="" style="fill: rgb(40, 56, 61);">
<path d="M250,38.5c116.813,0,211.5,94.693,211.5,211.5c0,116.813-94.687,211.5-211.5,211.5c-116.807,0-211.5-94.687-211.5-211.5
	C38.5,133.193,133.193,38.5,250,38.5z"/>
</g></g><g transform="translate(759,759) scale(0.138,0.138)"><g transform="" style="fill: rgb(40, 56, 61);">
<path  d="M470,38.5h-47c0,0-29.157,0-66.5,0c-5.711,0-11.611,0-17.63,0c-47.461,0-102.168,0-127.37,0
	C94.65,38.5,0,133.222,0,250c0,116.765,94.65,211.5,211.5,211.5c31.48,0,83.041,0,127.37,0c6.035,0,11.932,0,17.63,0
	c37.686,0,66.5,0,66.5,0h47h30v-423H470z"/>
</g></g><g transform="translate(828,759) scale(0.138,0.138)"><g transform="" style="fill: rgb(40, 56, 61);">
<path d="M288.5,38.5c-42.907,0-123.188,0-171.55,0c-23.857,0-39.95,0-39.95,0H59.5H30H0v423h30h29.5H77c0,0,16.216,0,39.95,0
	c51.332,0,137.84,0,171.55,0C405.301,461.5,500,366.8,500,250C500,133.191,405.301,38.5,288.5,38.5z"/>
</g></g><g transform="translate(1104,759) scale(0.138,0.138)"><g transform="" style="fill: rgb(40, 56, 61);">
<path d="M250,38.5c116.813,0,211.5,94.693,211.5,211.5c0,116.813-94.687,211.5-211.5,211.5c-116.807,0-211.5-94.687-211.5-211.5
	C38.5,133.193,133.193,38.5,250,38.5z"/>
</g></g><g transform="translate(1380,759) scale(0.138,0.138)"><g transform="" style="fill: rgb(40, 56, 61);">
<path  d="M470,38.5h-47c0,0-29.157,0-66.5,0c-5.711,0-11.611,0-17.63,0c-47.461,0-102.168,0-127.37,0
	C94.65,38.5,0,133.222,0,250c0,116.765,94.65,211.5,211.5,211.5c31.48,0,83.041,0,127.37,0c6.035,0,11.932,0,17.63,0
	c37.686,0,66.5,0,66.5,0h47h30v-423H470z"/>
</g></g><g transform="translate(1449,759) scale(0.138,0.138)"><g transform="" style="fill: rgb(40, 56, 61);">
<path d="M288.5,38.5c-42.907,0-123.188,0-171.55,0c-23.857,0-39.95,0-39.95,0H59.5H30H0v423h30h29.5H77c0,0,16.216,0,39.95,0
	c51.332,0,137.84,0,171.55,0C405.301,461.5,500,366.8,500,250C500,133.191,405.301,38.5,288.5,38.5z"/>
</g></g><g transform="translate(1863,759) scale(0.138,0.138)"><g transform="" style="fill: rgb(40, 56, 61);">
<path  d="M470,38.5h-47c0,0-29.157,0-66.5,0c-5.711,0-11.611,0-17.63,0c-47.461,0-102.168,0-127.37,0
	C94.65,38.5,0,133.222,0,250c0,116.765,94.65,211.5,211.5,211.5c31.48,0,83.041,0,127.37,0c6.035,0,11.932,0,17.63,0
	c37.686,0,66.5,0,66.5,0h47h30v-423H470z"/>
</g></g><g transform="translate(1932,759) scale(0.138,0.138)"><g transform="" style="fill: rgb(40, 56, 61);">
<path d="M288.5,38.5c-42.907,0-123.188,0-171.55,0c-23.857,0-39.95,0-39.95,0H59.5H30H0v423h30h29.5H77c0,0,16.216,0,39.95,0
	c51.332,0,137.84,0,171.55,0C405.301,461.5,500,366.8,500,250C500,133.191,405.301,38.5,288.5,38.5z"/>
</g></g><g transform="translate(0,828) scale(0.138,0.138)"><g transform="" style="fill: rgb(40, 56, 61);">
<path d="M250,38.5c116.813,0,211.5,94.693,211.5,211.5c0,116.813-94.687,211.5-211.5,211.5c-116.807,0-211.5-94.687-211.5-211.5
	C38.5,133.193,133.193,38.5,250,38.5z"/>
</g></g><g transform="translate(138,828) scale(0.138,0.138)"><g transform="" style="fill: rgb(40, 56, 61);">
<path  d="M470,38.5h-47c0,0-29.157,0-66.5,0c-5.711,0-11.611,0-17.63,0c-47.461,0-102.168,0-127.37,0
	C94.65,38.5,0,133.222,0,250c0,116.765,94.65,211.5,211.5,211.5c31.48,0,83.041,0,127.37,0c6.035,0,11.932,0,17.63,0
	c37.686,0,66.5,0,66.5,0h47h30v-423H470z"/>
</g></g><g transform="translate(207,828) scale(0.138,0.138)"><g transform="" style="fill: rgb(40, 56, 61);">
<path d="M288.5,38.5c-42.907,0-123.188,0-171.55,0c-23.857,0-39.95,0-39.95,0H59.5H30H0v423h30h29.5H77c0,0,16.216,0,39.95,0
	c51.332,0,137.84,0,171.55,0C405.301,461.5,500,366.8,500,250C500,133.191,405.301,38.5,288.5,38.5z"/>
</g></g><g transform="translate(414,828) scale(0.138,0.138)"><g transform="" style="fill: rgb(40, 56, 61);">
<path d="M250,38.5c116.813,0,211.5,94.693,211.5,211.5c0,116.813-94.687,211.5-211.5,211.5c-116.807,0-211.5-94.687-211.5-211.5
	C38.5,133.193,133.193,38.5,250,38.5z"/>
</g></g><g transform="translate(552,828) scale(0.138,0.138)"><g transform="" style="fill: rgb(40, 56, 61);">
<path d="M250,38.5c116.813,0,211.5,94.693,211.5,211.5c0,116.813-94.687,211.5-211.5,211.5c-116.807,0-211.5-94.687-211.5-211.5
	C38.5,133.193,133.193,38.5,250,38.5z"/>
</g></g><g transform="translate(1380,828) scale(0.138,0.138)"><g transform="" style="fill: rgb(40, 56, 61);">
<path d="M250,38.5c116.813,0,211.5,94.693,211.5,211.5c0,116.813-94.687,211.5-211.5,211.5c-116.807,0-211.5-94.687-211.5-211.5
	C38.5,133.193,133.193,38.5,250,38.5z"/>
</g></g><g transform="translate(1587,828) scale(0.138,0.138)"><g transform="" style="fill: rgb(40, 56, 61);">
<path d="M250,38.5c116.813,0,211.5,94.693,211.5,211.5c0,116.813-94.687,211.5-211.5,211.5c-116.807,0-211.5-94.687-211.5-211.5
	C38.5,133.193,133.193,38.5,250,38.5z"/>
</g></g><g transform="translate(1725,828) scale(0.138,0.138)"><g transform="" style="fill: rgb(40, 56, 61);">
<path d="M250,38.5c116.813,0,211.5,94.693,211.5,211.5c0,116.813-94.687,211.5-211.5,211.5c-116.807,0-211.5-94.687-211.5-211.5
	C38.5,133.193,133.193,38.5,250,38.5z"/>
</g></g><g transform="translate(1932,828) scale(0.138,0.138)"><g transform="" style="fill: rgb(40, 56, 61);">
<path d="M250,38.5c116.813,0,211.5,94.693,211.5,211.5c0,116.813-94.687,211.5-211.5,211.5c-116.807,0-211.5-94.687-211.5-211.5
	C38.5,133.193,133.193,38.5,250,38.5z"/>
</g></g><g transform="translate(0,897) scale(0.138,0.138)"><g transform="" style="fill: rgb(40, 56, 61);">
<path  d="M470,38.5h-47c0,0-29.157,0-66.5,0c-5.711,0-11.611,0-17.63,0c-47.461,0-102.168,0-127.37,0
	C94.65,38.5,0,133.222,0,250c0,116.765,94.65,211.5,211.5,211.5c31.48,0,83.041,0,127.37,0c6.035,0,11.932,0,17.63,0
	c37.686,0,66.5,0,66.5,0h47h30v-423H470z"/>
</g></g><g transform="translate(69,897) scale(0.138,0.138)"><g transform="" style="fill: rgb(40, 56, 61);">
<path d="M288.5,38.5c-42.907,0-123.188,0-171.55,0c-23.857,0-39.95,0-39.95,0H59.5H30H0v423h30h29.5H77c0,0,16.216,0,39.95,0
	c51.332,0,137.84,0,171.55,0C405.301,461.5,500,366.8,500,250C500,133.191,405.301,38.5,288.5,38.5z"/>
</g></g><g transform="translate(345,897) scale(0.138,0.138)"><g transform="" style="fill: rgb(40, 56, 61);">
<path d="M250,38.5c116.813,0,211.5,94.693,211.5,211.5c0,116.813-94.687,211.5-211.5,211.5c-116.807,0-211.5-94.687-211.5-211.5
	C38.5,133.193,133.193,38.5,250,38.5z"/>
</g></g><g transform="translate(1518,897) scale(0.138,0.138)"><g transform="" style="fill: rgb(40, 56, 61);">
<path d="M250,38.5c116.813,0,211.5,94.693,211.5,211.5c0,116.813-94.687,211.5-211.5,211.5c-116.807,0-211.5-94.687-211.5-211.5
	C38.5,133.193,133.193,38.5,250,38.5z"/>
</g></g><g transform="translate(1656,897) scale(0.138,0.138)"><g transform="" style="fill: rgb(40, 56, 61);">
<path d="M250,38.5c116.813,0,211.5,94.693,211.5,211.5c0,116.813-94.687,211.5-211.5,211.5c-116.807,0-211.5-94.687-211.5-211.5
	C38.5,133.193,133.193,38.5,250,38.5z"/>
</g></g><g transform="translate(1794,897) scale(0.138,0.138)"><g transform="" style="fill: rgb(40, 56, 61);">
<path d="M250,38.5c116.813,0,211.5,94.693,211.5,211.5c0,116.813-94.687,211.5-211.5,211.5c-116.807,0-211.5-94.687-211.5-211.5
	C38.5,133.193,133.193,38.5,250,38.5z"/>
</g></g><g transform="translate(1932,897) scale(0.138,0.138)"><g transform="" style="fill: rgb(40, 56, 61);">
<path d="M250,38.5c116.813,0,211.5,94.693,211.5,211.5c0,116.813-94.687,211.5-211.5,211.5c-116.807,0-211.5-94.687-211.5-211.5
	C38.5,133.193,133.193,38.5,250,38.5z"/>
</g></g><g transform="translate(0,966) scale(0.138,0.138)"><g transform="" style="fill: rgb(40, 56, 61);">
<path d="M250,38.5c116.813,0,211.5,94.693,211.5,211.5c0,116.813-94.687,211.5-211.5,211.5c-116.807,0-211.5-94.687-211.5-211.5
	C38.5,133.193,133.193,38.5,250,38.5z"/>
</g></g><g transform="translate(207,966) scale(0.138,0.138)"><g transform="" style="fill: rgb(40, 56, 61);">
<path d="M250,38.5c116.813,0,211.5,94.693,211.5,211.5c0,116.813-94.687,211.5-211.5,211.5c-116.807,0-211.5-94.687-211.5-211.5
	C38.5,133.193,133.193,38.5,250,38.5z"/>
</g></g><g transform="translate(345,966) scale(0.138,0.138)"><g transform="" style="fill: rgb(40, 56, 61);">
<path  d="M470,38.5h-47c0,0-29.157,0-66.5,0c-5.711,0-11.611,0-17.63,0c-47.461,0-102.168,0-127.37,0
	C94.65,38.5,0,133.222,0,250c0,116.765,94.65,211.5,211.5,211.5c31.48,0,83.041,0,127.37,0c6.035,0,11.932,0,17.63,0
	c37.686,0,66.5,0,66.5,0h47h30v-423H470z"/>
</g></g><g transform="translate(414,966) scale(0.138,0.138)"><g transform="" style="fill: rgb(40, 56, 61);">
<polygon points="250,38.5 0,38.5 0,461.5 250,461.5 500,461.5 500,38.5 "/>
</g></g><g transform="translate(483,966) scale(0.138,0.138)"><g transform="" style="fill: rgb(40, 56, 61);">
<polygon points="250,38.5 0,38.5 0,461.5 250,461.5 500,461.5 500,38.5 "/>
</g></g><g transform="translate(552,966) scale(0.138,0.138)"><g transform="" style="fill: rgb(40, 56, 61);">
<path d="M288.5,38.5c-42.907,0-123.188,0-171.55,0c-23.857,0-39.95,0-39.95,0H59.5H30H0v423h30h29.5H77c0,0,16.216,0,39.95,0
	c51.332,0,137.84,0,171.55,0C405.301,461.5,500,366.8,500,250C500,133.191,405.301,38.5,288.5,38.5z"/>
</g></g><g transform="translate(1656,966) scale(0.138,0.138)"><g transform="" style="fill: rgb(40, 56, 61);">
<path d="M250,38.5c116.813,0,211.5,94.693,211.5,211.5c0,116.813-94.687,211.5-211.5,211.5c-116.807,0-211.5-94.687-211.5-211.5
	C38.5,133.193,133.193,38.5,250,38.5z"/>
</g></g><g transform="translate(1932,966) scale(0.138,0.138)"><g transform="" style="fill: rgb(40, 56, 61);">
<path d="M250,38.5c116.813,0,211.5,94.693,211.5,211.5c0,116.813-94.687,211.5-211.5,211.5c-116.807,0-211.5-94.687-211.5-211.5
	C38.5,133.193,133.193,38.5,250,38.5z"/>
</g></g><g transform="translate(69,1035) scale(0.138,0.138)"><g transform="" style="fill: rgb(40, 56, 61);">
<path  d="M470,38.5h-47c0,0-29.157,0-66.5,0c-5.711,0-11.611,0-17.63,0c-47.461,0-102.168,0-127.37,0
	C94.65,38.5,0,133.222,0,250c0,116.765,94.65,211.5,211.5,211.5c31.48,0,83.041,0,127.37,0c6.035,0,11.932,0,17.63,0
	c37.686,0,66.5,0,66.5,0h47h30v-423H470z"/>
</g></g><g transform="translate(138,1035) scale(0.138,0.138)"><g transform="" style="fill: rgb(40, 56, 61);">
<path d="M288.5,38.5c-42.907,0-123.188,0-171.55,0c-23.857,0-39.95,0-39.95,0H59.5H30H0v423h30h29.5H77c0,0,16.216,0,39.95,0
	c51.332,0,137.84,0,171.55,0C405.301,461.5,500,366.8,500,250C500,133.191,405.301,38.5,288.5,38.5z"/>
</g></g><g transform="translate(276,1035) scale(0.138,0.138)"><g transform="" style="fill: rgb(40, 56, 61);">
<path  d="M470,38.5h-47c0,0-29.157,0-66.5,0c-5.711,0-11.611,0-17.63,0c-47.461,0-102.168,0-127.37,0
	C94.65,38.5,0,133.222,0,250c0,116.765,94.65,211.5,211.5,211.5c31.48,0,83.041,0,127.37,0c6.035,0,11.932,0,17.63,0
	c37.686,0,66.5,0,66.5,0h47h30v-423H470z"/>
</g></g><g transform="translate(345,1035) scale(0.138,0.138)"><g transform="" style="fill: rgb(40, 56, 61);">
<path d="M288.5,38.5c-42.907,0-123.188,0-171.55,0c-23.857,0-39.95,0-39.95,0H59.5H30H0v423h30h29.5H77c0,0,16.216,0,39.95,0
	c51.332,0,137.84,0,171.55,0C405.301,461.5,500,366.8,500,250C500,133.191,405.301,38.5,288.5,38.5z"/>
</g></g><g transform="translate(1380,1035) scale(0.138,0.138)"><g transform="" style="fill: rgb(40, 56, 61);">
<path d="M250,38.5c116.813,0,211.5,94.693,211.5,211.5c0,116.813-94.687,211.5-211.5,211.5c-116.807,0-211.5-94.687-211.5-211.5
	C38.5,133.193,133.193,38.5,250,38.5z"/>
</g></g><g transform="translate(1587,1035) scale(0.138,0.138)"><g transform="" style="fill: rgb(40, 56, 61);">
<path d="M250,38.5c116.813,0,211.5,94.693,211.5,211.5c0,116.813-94.687,211.5-211.5,211.5c-116.807,0-211.5-94.687-211.5-211.5
	C38.5,133.193,133.193,38.5,250,38.5z"/>
</g></g><g transform="translate(1725,1035) scale(0.138,0.138)"><g transform="" style="fill: rgb(40, 56, 61);">
<path d="M250,38.5c116.813,0,211.5,94.693,211.5,211.5c0,116.813-94.687,211.5-211.5,211.5c-116.807,0-211.5-94.687-211.5-211.5
	C38.5,133.193,133.193,38.5,250,38.5z"/>
</g></g><g transform="translate(1932,1035) scale(0.138,0.138)"><g transform="" style="fill: rgb(40, 56, 61);">
<path d="M250,38.5c116.813,0,211.5,94.693,211.5,211.5c0,116.813-94.687,211.5-211.5,211.5c-116.807,0-211.5-94.687-211.5-211.5
	C38.5,133.193,133.193,38.5,250,38.5z"/>
</g></g><g transform="translate(207,1104) scale(0.138,0.138)"><g transform="" style="fill: rgb(40, 56, 61);">
<path  d="M470,38.5h-47c0,0-29.157,0-66.5,0c-5.711,0-11.611,0-17.63,0c-47.461,0-102.168,0-127.37,0
	C94.65,38.5,0,133.222,0,250c0,116.765,94.65,211.5,211.5,211.5c31.48,0,83.041,0,127.37,0c6.035,0,11.932,0,17.63,0
	c37.686,0,66.5,0,66.5,0h47h30v-423H470z"/>
</g></g><g transform="translate(276,1104) scale(0.138,0.138)"><g transform="" style="fill: rgb(40, 56, 61);">
<polygon points="250,38.5 0,38.5 0,461.5 250,461.5 500,461.5 500,38.5 "/>
</g></g><g transform="translate(345,1104) scale(0.138,0.138)"><g transform="" style="fill: rgb(40, 56, 61);">
<polygon points="250,38.5 0,38.5 0,461.5 250,461.5 500,461.5 500,38.5 "/>
</g></g><g transform="translate(414,1104) scale(0.138,0.138)"><g transform="" style="fill: rgb(40, 56, 61);">
<polygon points="250,38.5 0,38.5 0,461.5 250,461.5 500,461.5 500,38.5 "/>
</g></g><g transform="translate(483,1104) scale(0.138,0.138)"><g transform="" style="fill: rgb(40, 56, 61);">
<polygon points="250,38.5 0,38.5 0,461.5 250,461.5 500,461.5 500,38.5 "/>
</g></g><g transform="translate(552,1104) scale(0.138,0.138)"><g transform="" style="fill: rgb(40, 56, 61);">
<path d="M288.5,38.5c-42.907,0-123.188,0-171.55,0c-23.857,0-39.95,0-39.95,0H59.5H30H0v423h30h29.5H77c0,0,16.216,0,39.95,0
	c51.332,0,137.84,0,171.55,0C405.301,461.5,500,366.8,500,250C500,133.191,405.301,38.5,288.5,38.5z"/>
</g></g><g transform="translate(1380,1104) scale(0.138,0.138)"><g transform="" style="fill: rgb(40, 56, 61);">
<path  d="M470,38.5h-47c0,0-29.157,0-66.5,0c-5.711,0-11.611,0-17.63,0c-47.461,0-102.168,0-127.37,0
	C94.65,38.5,0,133.222,0,250c0,116.765,94.65,211.5,211.5,211.5c31.48,0,83.041,0,127.37,0c6.035,0,11.932,0,17.63,0
	c37.686,0,66.5,0,66.5,0h47h30v-423H470z"/>
</g></g><g transform="translate(1449,1104) scale(0.138,0.138)"><g transform="" style="fill: rgb(40, 56, 61);">
<path d="M288.5,38.5c-42.907,0-123.188,0-171.55,0c-23.857,0-39.95,0-39.95,0H59.5H30H0v423h30h29.5H77c0,0,16.216,0,39.95,0
	c51.332,0,137.84,0,171.55,0C405.301,461.5,500,366.8,500,250C500,133.191,405.301,38.5,288.5,38.5z"/>
</g></g><g transform="translate(1587,1104) scale(0.138,0.138)"><g transform="" style="fill: rgb(40, 56, 61);">
<path d="M250,38.5c116.813,0,211.5,94.693,211.5,211.5c0,116.813-94.687,211.5-211.5,211.5c-116.807,0-211.5-94.687-211.5-211.5
	C38.5,133.193,133.193,38.5,250,38.5z"/>
</g></g><g transform="translate(1863,1104) scale(0.138,0.138)"><g transform="" style="fill: rgb(40, 56, 61);">
<path d="M250,38.5c116.813,0,211.5,94.693,211.5,211.5c0,116.813-94.687,211.5-211.5,211.5c-116.807,0-211.5-94.687-211.5-211.5
	C38.5,133.193,133.193,38.5,250,38.5z"/>
</g></g><g transform="translate(0,1173) scale(0.138,0.138)"><g transform="" style="fill: rgb(40, 56, 61);">
<path  d="M470,38.5h-47c0,0-29.157,0-66.5,0c-5.711,0-11.611,0-17.63,0c-47.461,0-102.168,0-127.37,0
	C94.65,38.5,0,133.222,0,250c0,116.765,94.65,211.5,211.5,211.5c31.48,0,83.041,0,127.37,0c6.035,0,11.932,0,17.63,0
	c37.686,0,66.5,0,66.5,0h47h30v-423H470z"/>
</g></g><g transform="translate(69,1173) scale(0.138,0.138)"><g transform="" style="fill: rgb(40, 56, 61);">
<path d="M288.5,38.5c-42.907,0-123.188,0-171.55,0c-23.857,0-39.95,0-39.95,0H59.5H30H0v423h30h29.5H77c0,0,16.216,0,39.95,0
	c51.332,0,137.84,0,171.55,0C405.301,461.5,500,366.8,500,250C500,133.191,405.301,38.5,288.5,38.5z"/>
</g></g><g transform="translate(207,1173) scale(0.138,0.138)"><g transform="" style="fill: rgb(40, 56, 61);">
<path  d="M470,38.5h-47c0,0-29.157,0-66.5,0c-5.711,0-11.611,0-17.63,0c-47.461,0-102.168,0-127.37,0
	C94.65,38.5,0,133.222,0,250c0,116.765,94.65,211.5,211.5,211.5c31.48,0,83.041,0,127.37,0c6.035,0,11.932,0,17.63,0
	c37.686,0,66.5,0,66.5,0h47h30v-423H470z"/>
</g></g><g transform="translate(276,1173) scale(0.138,0.138)"><g transform="" style="fill: rgb(40, 56, 61);">
<path d="M288.5,38.5c-42.907,0-123.188,0-171.55,0c-23.857,0-39.95,0-39.95,0H59.5H30H0v423h30h29.5H77c0,0,16.216,0,39.95,0
	c51.332,0,137.84,0,171.55,0C405.301,461.5,500,366.8,500,250C500,133.191,405.301,38.5,288.5,38.5z"/>
</g></g><g transform="translate(552,1173) scale(0.138,0.138)"><g transform="" style="fill: rgb(40, 56, 61);">
<path  d="M470,38.5h-47c0,0-29.157,0-66.5,0c-5.711,0-11.611,0-17.63,0c-47.461,0-102.168,0-127.37,0
	C94.65,38.5,0,133.222,0,250c0,116.765,94.65,211.5,211.5,211.5c31.48,0,83.041,0,127.37,0c6.035,0,11.932,0,17.63,0
	c37.686,0,66.5,0,66.5,0h47h30v-423H470z"/>
</g></g><g transform="translate(621,1173) scale(0.138,0.138)"><g transform="" style="fill: rgb(40, 56, 61);">
<polygon points="250,38.5 0,38.5 0,461.5 250,461.5 500,461.5 500,38.5 "/>
</g></g><g transform="translate(690,1173) scale(0.138,0.138)"><g transform="" style="fill: rgb(40, 56, 61);">
<polygon points="250,38.5 0,38.5 0,461.5 250,461.5 500,461.5 500,38.5 "/>
</g></g><g transform="translate(759,1173) scale(0.138,0.138)"><g transform="" style="fill: rgb(40, 56, 61);">
<polygon points="250,38.5 0,38.5 0,461.5 250,461.5 500,461.5 500,38.5 "/>
</g></g><g transform="translate(828,1173) scale(0.138,0.138)"><g transform="" style="fill: rgb(40, 56, 61);">
<path d="M288.5,38.5c-42.907,0-123.188,0-171.55,0c-23.857,0-39.95,0-39.95,0H59.5H30H0v423h30h29.5H77c0,0,16.216,0,39.95,0
	c51.332,0,137.84,0,171.55,0C405.301,461.5,500,366.8,500,250C500,133.191,405.301,38.5,288.5,38.5z"/>
</g></g><g transform="translate(1173,1173) scale(0.138,0.138)"><g transform="" style="fill: rgb(40, 56, 61);">
<path d="M250,38.5c116.813,0,211.5,94.693,211.5,211.5c0,116.813-94.687,211.5-211.5,211.5c-116.807,0-211.5-94.687-211.5-211.5
	C38.5,133.193,133.193,38.5,250,38.5z"/>
</g></g><g transform="translate(1518,1173) scale(0.138,0.138)"><g transform="" style="fill: rgb(40, 56, 61);">
<path  d="M470,38.5h-47c0,0-29.157,0-66.5,0c-5.711,0-11.611,0-17.63,0c-47.461,0-102.168,0-127.37,0
	C94.65,38.5,0,133.222,0,250c0,116.765,94.65,211.5,211.5,211.5c31.48,0,83.041,0,127.37,0c6.035,0,11.932,0,17.63,0
	c37.686,0,66.5,0,66.5,0h47h30v-423H470z"/>
</g></g><g transform="translate(1587,1173) scale(0.138,0.138)"><g transform="" style="fill: rgb(40, 56, 61);">
<polygon points="250,38.5 0,38.5 0,461.5 250,461.5 500,461.5 500,38.5 "/>
</g></g><g transform="translate(1656,1173) scale(0.138,0.138)"><g transform="" style="fill: rgb(40, 56, 61);">
<path d="M288.5,38.5c-42.907,0-123.188,0-171.55,0c-23.857,0-39.95,0-39.95,0H59.5H30H0v423h30h29.5H77c0,0,16.216,0,39.95,0
	c51.332,0,137.84,0,171.55,0C405.301,461.5,500,366.8,500,250C500,133.191,405.301,38.5,288.5,38.5z"/>
</g></g><g transform="translate(1932,1173) scale(0.138,0.138)"><g transform="" style="fill: rgb(40, 56, 61);">
<path d="M250,38.5c116.813,0,211.5,94.693,211.5,211.5c0,116.813-94.687,211.5-211.5,211.5c-116.807,0-211.5-94.687-211.5-211.5
	C38.5,133.193,133.193,38.5,250,38.5z"/>
</g></g><g transform="translate(207,1242) scale(0.138,0.138)"><g transform="" style="fill: rgb(40, 56, 61);">
<path  d="M470,38.5h-47c0,0-29.157,0-66.5,0c-5.711,0-11.611,0-17.63,0c-47.461,0-102.168,0-127.37,0
	C94.65,38.5,0,133.222,0,250c0,116.765,94.65,211.5,211.5,211.5c31.48,0,83.041,0,127.37,0c6.035,0,11.932,0,17.63,0
	c37.686,0,66.5,0,66.5,0h47h30v-423H470z"/>
</g></g><g transform="translate(276,1242) scale(0.138,0.138)"><g transform="" style="fill: rgb(40, 56, 61);">
<polygon points="250,38.5 0,38.5 0,461.5 250,461.5 500,461.5 500,38.5 "/>
</g></g><g transform="translate(345,1242) scale(0.138,0.138)"><g transform="" style="fill: rgb(40, 56, 61);">
<polygon points="250,38.5 0,38.5 0,461.5 250,461.5 500,461.5 500,38.5 "/>
</g></g><g transform="translate(414,1242) scale(0.138,0.138)"><g transform="" style="fill: rgb(40, 56, 61);">
<polygon points="250,38.5 0,38.5 0,461.5 250,461.5 500,461.5 500,38.5 "/>
</g></g><g transform="translate(483,1242) scale(0.138,0.138)"><g transform="" style="fill: rgb(40, 56, 61);">
<path d="M288.5,38.5c-42.907,0-123.188,0-171.55,0c-23.857,0-39.95,0-39.95,0H59.5H30H0v423h30h29.5H77c0,0,16.216,0,39.95,0
	c51.332,0,137.84,0,171.55,0C405.301,461.5,500,366.8,500,250C500,133.191,405.301,38.5,288.5,38.5z"/>
</g></g><g transform="translate(690,1242) scale(0.138,0.138)"><g transform="" style="fill: rgb(40, 56, 61);">
<path  d="M470,38.5h-47c0,0-29.157,0-66.5,0c-5.711,0-11.611,0-17.63,0c-47.461,0-102.168,0-127.37,0
	C94.65,38.5,0,133.222,0,250c0,116.765,94.65,211.5,211.5,211.5c31.48,0,83.041,0,127.37,0c6.035,0,11.932,0,17.63,0
	c37.686,0,66.5,0,66.5,0h47h30v-423H470z"/>
</g></g><g transform="translate(759,1242) scale(0.138,0.138)"><g transform="" style="fill: rgb(40, 56, 61);">
<path d="M288.5,38.5c-42.907,0-123.188,0-171.55,0c-23.857,0-39.95,0-39.95,0H59.5H30H0v423h30h29.5H77c0,0,16.216,0,39.95,0
	c51.332,0,137.84,0,171.55,0C405.301,461.5,500,366.8,500,250C500,133.191,405.301,38.5,288.5,38.5z"/>
</g></g><g transform="translate(897,1242) scale(0.138,0.138)"><g transform="" style="fill: rgb(40, 56, 61);">
<path d="M250,38.5c116.813,0,211.5,94.693,211.5,211.5c0,116.813-94.687,211.5-211.5,211.5c-116.807,0-211.5-94.687-211.5-211.5
	C38.5,133.193,133.193,38.5,250,38.5z"/>
</g></g><g transform="translate(1173,1242) scale(0.138,0.138)"><g transform="" style="fill: rgb(40, 56, 61);">
<path  d="M470,38.5h-47c0,0-29.157,0-66.5,0c-5.711,0-11.611,0-17.63,0c-47.461,0-102.168,0-127.37,0
	C94.65,38.5,0,133.222,0,250c0,116.765,94.65,211.5,211.5,211.5c31.48,0,83.041,0,127.37,0c6.035,0,11.932,0,17.63,0
	c37.686,0,66.5,0,66.5,0h47h30v-423H470z"/>
</g></g><g transform="translate(1242,1242) scale(0.138,0.138)"><g transform="" style="fill: rgb(40, 56, 61);">
<path d="M288.5,38.5c-42.907,0-123.188,0-171.55,0c-23.857,0-39.95,0-39.95,0H59.5H30H0v423h30h29.5H77c0,0,16.216,0,39.95,0
	c51.332,0,137.84,0,171.55,0C405.301,461.5,500,366.8,500,250C500,133.191,405.301,38.5,288.5,38.5z"/>
</g></g><g transform="translate(1794,1242) scale(0.138,0.138)"><g transform="" style="fill: rgb(40, 56, 61);">
<path d="M250,38.5c116.813,0,211.5,94.693,211.5,211.5c0,116.813-94.687,211.5-211.5,211.5c-116.807,0-211.5-94.687-211.5-211.5
	C38.5,133.193,133.193,38.5,250,38.5z"/>
</g></g><g transform="translate(1932,1242) scale(0.138,0.138)"><g transform="" style="fill: rgb(40, 56, 61);">
<path d="M250,38.5c116.813,0,211.5,94.693,211.5,211.5c0,116.813-94.687,211.5-211.5,211.5c-116.807,0-211.5-94.687-211.5-211.5
	C38.5,133.193,133.193,38.5,250,38.5z"/>
</g></g><g transform="translate(345,1311) scale(0.138,0.138)"><g transform="" style="fill: rgb(40, 56, 61);">
<path d="M250,38.5c116.813,0,211.5,94.693,211.5,211.5c0,116.813-94.687,211.5-211.5,211.5c-116.807,0-211.5-94.687-211.5-211.5
	C38.5,133.193,133.193,38.5,250,38.5z"/>
</g></g><g transform="translate(690,1311) scale(0.138,0.138)"><g transform="" style="fill: rgb(40, 56, 61);">
<path  d="M470,38.5h-47c0,0-29.157,0-66.5,0c-5.711,0-11.611,0-17.63,0c-47.461,0-102.168,0-127.37,0
	C94.65,38.5,0,133.222,0,250c0,116.765,94.65,211.5,211.5,211.5c31.48,0,83.041,0,127.37,0c6.035,0,11.932,0,17.63,0
	c37.686,0,66.5,0,66.5,0h47h30v-423H470z"/>
</g></g><g transform="translate(759,1311) scale(0.138,0.138)"><g transform="" style="fill: rgb(40, 56, 61);">
<path d="M288.5,38.5c-42.907,0-123.188,0-171.55,0c-23.857,0-39.95,0-39.95,0H59.5H30H0v423h30h29.5H77c0,0,16.216,0,39.95,0
	c51.332,0,137.84,0,171.55,0C405.301,461.5,500,366.8,500,250C500,133.191,405.301,38.5,288.5,38.5z"/>
</g></g><g transform="translate(897,1311) scale(0.138,0.138)"><g transform="" style="fill: rgb(40, 56, 61);">
<path  d="M470,38.5h-47c0,0-29.157,0-66.5,0c-5.711,0-11.611,0-17.63,0c-47.461,0-102.168,0-127.37,0
	C94.65,38.5,0,133.222,0,250c0,116.765,94.65,211.5,211.5,211.5c31.48,0,83.041,0,127.37,0c6.035,0,11.932,0,17.63,0
	c37.686,0,66.5,0,66.5,0h47h30v-423H470z"/>
</g></g><g transform="translate(966,1311) scale(0.138,0.138)"><g transform="" style="fill: rgb(40, 56, 61);">
<path d="M288.5,38.5c-42.907,0-123.188,0-171.55,0c-23.857,0-39.95,0-39.95,0H59.5H30H0v423h30h29.5H77c0,0,16.216,0,39.95,0
	c51.332,0,137.84,0,171.55,0C405.301,461.5,500,366.8,500,250C500,133.191,405.301,38.5,288.5,38.5z"/>
</g></g><g transform="translate(1173,1311) scale(0.138,0.138)"><g transform="" style="fill: rgb(40, 56, 61);">
<path d="M250,38.5c116.813,0,211.5,94.693,211.5,211.5c0,116.813-94.687,211.5-211.5,211.5c-116.807,0-211.5-94.687-211.5-211.5
	C38.5,133.193,133.193,38.5,250,38.5z"/>
</g></g><g transform="translate(1311,1311) scale(0.138,0.138)"><g transform="" style="fill: rgb(40, 56, 61);">
<path  d="M470,38.5h-47c0,0-29.157,0-66.5,0c-5.711,0-11.611,0-17.63,0c-47.461,0-102.168,0-127.37,0
	C94.65,38.5,0,133.222,0,250c0,116.765,94.65,211.5,211.5,211.5c31.48,0,83.041,0,127.37,0c6.035,0,11.932,0,17.63,0
	c37.686,0,66.5,0,66.5,0h47h30v-423H470z"/>
</g></g><g transform="translate(1380,1311) scale(0.138,0.138)"><g transform="" style="fill: rgb(40, 56, 61);">
<path d="M288.5,38.5c-42.907,0-123.188,0-171.55,0c-23.857,0-39.95,0-39.95,0H59.5H30H0v423h30h29.5H77c0,0,16.216,0,39.95,0
	c51.332,0,137.84,0,171.55,0C405.301,461.5,500,366.8,500,250C500,133.191,405.301,38.5,288.5,38.5z"/>
</g></g><g transform="translate(1725,1311) scale(0.138,0.138)"><g transform="" style="fill: rgb(40, 56, 61);">
<path d="M250,38.5c116.813,0,211.5,94.693,211.5,211.5c0,116.813-94.687,211.5-211.5,211.5c-116.807,0-211.5-94.687-211.5-211.5
	C38.5,133.193,133.193,38.5,250,38.5z"/>
</g></g><g transform="translate(1863,1311) scale(0.138,0.138)"><g transform="" style="fill: rgb(40, 56, 61);">
<path d="M250,38.5c116.813,0,211.5,94.693,211.5,211.5c0,116.813-94.687,211.5-211.5,211.5c-116.807,0-211.5-94.687-211.5-211.5
	C38.5,133.193,133.193,38.5,250,38.5z"/>
</g></g><g transform="translate(0,1380) scale(0.138,0.138)"><g transform="" style="fill: rgb(40, 56, 61);">
<path  d="M470,38.5h-47c0,0-29.157,0-66.5,0c-5.711,0-11.611,0-17.63,0c-47.461,0-102.168,0-127.37,0
	C94.65,38.5,0,133.222,0,250c0,116.765,94.65,211.5,211.5,211.5c31.48,0,83.041,0,127.37,0c6.035,0,11.932,0,17.63,0
	c37.686,0,66.5,0,66.5,0h47h30v-423H470z"/>
</g></g><g transform="translate(69,1380) scale(0.138,0.138)"><g transform="" style="fill: rgb(40, 56, 61);">
<path d="M288.5,38.5c-42.907,0-123.188,0-171.55,0c-23.857,0-39.95,0-39.95,0H59.5H30H0v423h30h29.5H77c0,0,16.216,0,39.95,0
	c51.332,0,137.84,0,171.55,0C405.301,461.5,500,366.8,500,250C500,133.191,405.301,38.5,288.5,38.5z"/>
</g></g><g transform="translate(207,1380) scale(0.138,0.138)"><g transform="" style="fill: rgb(40, 56, 61);">
<path  d="M470,38.5h-47c0,0-29.157,0-66.5,0c-5.711,0-11.611,0-17.63,0c-47.461,0-102.168,0-127.37,0
	C94.65,38.5,0,133.222,0,250c0,116.765,94.65,211.5,211.5,211.5c31.48,0,83.041,0,127.37,0c6.035,0,11.932,0,17.63,0
	c37.686,0,66.5,0,66.5,0h47h30v-423H470z"/>
</g></g><g transform="translate(276,1380) scale(0.138,0.138)"><g transform="" style="fill: rgb(40, 56, 61);">
<polygon points="250,38.5 0,38.5 0,461.5 250,461.5 500,461.5 500,38.5 "/>
</g></g><g transform="translate(345,1380) scale(0.138,0.138)"><g transform="" style="fill: rgb(40, 56, 61);">
<polygon points="250,38.5 0,38.5 0,461.5 250,461.5 500,461.5 500,38.5 "/>
</g></g><g transform="translate(414,1380) scale(0.138,0.138)"><g transform="" style="fill: rgb(40, 56, 61);">
<path d="M288.5,38.5c-42.907,0-123.188,0-171.55,0c-23.857,0-39.95,0-39.95,0H59.5H30H0v423h30h29.5H77c0,0,16.216,0,39.95,0
	c51.332,0,137.84,0,171.55,0C405.301,461.5,500,366.8,500,250C500,133.191,405.301,38.5,288.5,38.5z"/>
</g></g><g transform="translate(552,1380) scale(0.138,0.138)"><g transform="" style="fill: rgb(40, 56, 61);">
<path d="M250,38.5c116.813,0,211.5,94.693,211.5,211.5c0,116.813-94.687,211.5-211.5,211.5c-116.807,0-211.5-94.687-211.5-211.5
	C38.5,133.193,133.193,38.5,250,38.5z"/>
</g></g><g transform="translate(690,1380) scale(0.138,0.138)"><g transform="" style="fill: rgb(40, 56, 61);">
<path d="M250,38.5c116.813,0,211.5,94.693,211.5,211.5c0,116.813-94.687,211.5-211.5,211.5c-116.807,0-211.5-94.687-211.5-211.5
	C38.5,133.193,133.193,38.5,250,38.5z"/>
</g></g><g transform="translate(1035,1380) scale(0.138,0.138)"><g transform="" style="fill: rgb(40, 56, 61);">
<path d="M250,38.5c116.813,0,211.5,94.693,211.5,211.5c0,116.813-94.687,211.5-211.5,211.5c-116.807,0-211.5-94.687-211.5-211.5
	C38.5,133.193,133.193,38.5,250,38.5z"/>
</g></g><g transform="translate(1173,1380) scale(0.138,0.138)"><g transform="" style="fill: rgb(40, 56, 61);">
<path d="M250,38.5c116.813,0,211.5,94.693,211.5,211.5c0,116.813-94.687,211.5-211.5,211.5c-116.807,0-211.5-94.687-211.5-211.5
	C38.5,133.193,133.193,38.5,250,38.5z"/>
</g></g><g transform="translate(1380,1380) scale(0.138,0.138)"><g transform="" style="fill: rgb(40, 56, 61);">
<path  d="M470,38.5h-47c0,0-29.157,0-66.5,0c-5.711,0-11.611,0-17.63,0c-47.461,0-102.168,0-127.37,0
	C94.65,38.5,0,133.222,0,250c0,116.765,94.65,211.5,211.5,211.5c31.48,0,83.041,0,127.37,0c6.035,0,11.932,0,17.63,0
	c37.686,0,66.5,0,66.5,0h47h30v-423H470z"/>
</g></g><g transform="translate(1449,1380) scale(0.138,0.138)"><g transform="" style="fill: rgb(40, 56, 61);">
<polygon points="250,38.5 0,38.5 0,461.5 250,461.5 500,461.5 500,38.5 "/>
</g></g><g transform="translate(1518,1380) scale(0.138,0.138)"><g transform="" style="fill: rgb(40, 56, 61);">
<polygon points="250,38.5 0,38.5 0,461.5 250,461.5 500,461.5 500,38.5 "/>
</g></g><g transform="translate(1587,1380) scale(0.138,0.138)"><g transform="" style="fill: rgb(40, 56, 61);">
<polygon points="250,38.5 0,38.5 0,461.5 250,461.5 500,461.5 500,38.5 "/>
</g></g><g transform="translate(1656,1380) scale(0.138,0.138)"><g transform="" style="fill: rgb(40, 56, 61);">
<polygon points="250,38.5 0,38.5 0,461.5 250,461.5 500,461.5 500,38.5 "/>
</g></g><g transform="translate(1725,1380) scale(0.138,0.138)"><g transform="" style="fill: rgb(40, 56, 61);">
<path d="M288.5,38.5c-42.907,0-123.188,0-171.55,0c-23.857,0-39.95,0-39.95,0H59.5H30H0v423h30h29.5H77c0,0,16.216,0,39.95,0
	c51.332,0,137.84,0,171.55,0C405.301,461.5,500,366.8,500,250C500,133.191,405.301,38.5,288.5,38.5z"/>
</g></g><g transform="translate(1863,1380) scale(0.138,0.138)"><g transform="" style="fill: rgb(40, 56, 61);">
<path d="M250,38.5c116.813,0,211.5,94.693,211.5,211.5c0,116.813-94.687,211.5-211.5,211.5c-116.807,0-211.5-94.687-211.5-211.5
	C38.5,133.193,133.193,38.5,250,38.5z"/>
</g></g><g transform="translate(552,1449) scale(0.138,0.138)"><g transform="" style="fill: rgb(40, 56, 61);">
<path d="M250,38.5c116.813,0,211.5,94.693,211.5,211.5c0,116.813-94.687,211.5-211.5,211.5c-116.807,0-211.5-94.687-211.5-211.5
	C38.5,133.193,133.193,38.5,250,38.5z"/>
</g></g><g transform="translate(690,1449) scale(0.138,0.138)"><g transform="" style="fill: rgb(40, 56, 61);">
<path d="M250,38.5c116.813,0,211.5,94.693,211.5,211.5c0,116.813-94.687,211.5-211.5,211.5c-116.807,0-211.5-94.687-211.5-211.5
	C38.5,133.193,133.193,38.5,250,38.5z"/>
</g></g><g transform="translate(828,1449) scale(0.138,0.138)"><g transform="" style="fill: rgb(40, 56, 61);">
<path  d="M470,38.5h-47c0,0-29.157,0-66.5,0c-5.711,0-11.611,0-17.63,0c-47.461,0-102.168,0-127.37,0
	C94.65,38.5,0,133.222,0,250c0,116.765,94.65,211.5,211.5,211.5c31.48,0,83.041,0,127.37,0c6.035,0,11.932,0,17.63,0
	c37.686,0,66.5,0,66.5,0h47h30v-423H470z"/>
</g></g><g transform="translate(897,1449) scale(0.138,0.138)"><g transform="" style="fill: rgb(40, 56, 61);">
<polygon points="250,38.5 0,38.5 0,461.5 250,461.5 500,461.5 500,38.5 "/>
</g></g><g transform="translate(966,1449) scale(0.138,0.138)"><g transform="" style="fill: rgb(40, 56, 61);">
<polygon points="250,38.5 0,38.5 0,461.5 250,461.5 500,461.5 500,38.5 "/>
</g></g><g transform="translate(1035,1449) scale(0.138,0.138)"><g transform="" style="fill: rgb(40, 56, 61);">
<path d="M288.5,38.5c-42.907,0-123.188,0-171.55,0c-23.857,0-39.95,0-39.95,0H59.5H30H0v423h30h29.5H77c0,0,16.216,0,39.95,0
	c51.332,0,137.84,0,171.55,0C405.301,461.5,500,366.8,500,250C500,133.191,405.301,38.5,288.5,38.5z"/>
</g></g><g transform="translate(1242,1449) scale(0.138,0.138)"><g transform="" style="fill: rgb(40, 56, 61);">
<path d="M250,38.5c116.813,0,211.5,94.693,211.5,211.5c0,116.813-94.687,211.5-211.5,211.5c-116.807,0-211.5-94.687-211.5-211.5
	C38.5,133.193,133.193,38.5,250,38.5z"/>
</g></g><g transform="translate(1380,1449) scale(0.138,0.138)"><g transform="" style="fill: rgb(40, 56, 61);">
<path d="M250,38.5c116.813,0,211.5,94.693,211.5,211.5c0,116.813-94.687,211.5-211.5,211.5c-116.807,0-211.5-94.687-211.5-211.5
	C38.5,133.193,133.193,38.5,250,38.5z"/>
</g></g><g transform="translate(1656,1449) scale(0.138,0.138)"><g transform="" style="fill: rgb(40, 56, 61);">
<path d="M250,38.5c116.813,0,211.5,94.693,211.5,211.5c0,116.813-94.687,211.5-211.5,211.5c-116.807,0-211.5-94.687-211.5-211.5
	C38.5,133.193,133.193,38.5,250,38.5z"/>
</g></g><g transform="translate(1794,1449) scale(0.138,0.138)"><g transform="" style="fill: rgb(40, 56, 61);">
<path  d="M470,38.5h-47c0,0-29.157,0-66.5,0c-5.711,0-11.611,0-17.63,0c-47.461,0-102.168,0-127.37,0
	C94.65,38.5,0,133.222,0,250c0,116.765,94.65,211.5,211.5,211.5c31.48,0,83.041,0,127.37,0c6.035,0,11.932,0,17.63,0
	c37.686,0,66.5,0,66.5,0h47h30v-423H470z"/>
</g></g><g transform="translate(1863,1449) scale(0.138,0.138)"><g transform="" style="fill: rgb(40, 56, 61);">
<polygon points="250,38.5 0,38.5 0,461.5 250,461.5 500,461.5 500,38.5 "/>
</g></g><g transform="translate(1932,1449) scale(0.138,0.138)"><g transform="" style="fill: rgb(40, 56, 61);">
<path d="M288.5,38.5c-42.907,0-123.188,0-171.55,0c-23.857,0-39.95,0-39.95,0H59.5H30H0v423h30h29.5H77c0,0,16.216,0,39.95,0
	c51.332,0,137.84,0,171.55,0C405.301,461.5,500,366.8,500,250C500,133.191,405.301,38.5,288.5,38.5z"/>
</g></g><g transform="translate(552,1518) scale(0.138,0.138)"><g transform="" style="fill: rgb(40, 56, 61);">
<path  d="M470,38.5h-47c0,0-29.157,0-66.5,0c-5.711,0-11.611,0-17.63,0c-47.461,0-102.168,0-127.37,0
	C94.65,38.5,0,133.222,0,250c0,116.765,94.65,211.5,211.5,211.5c31.48,0,83.041,0,127.37,0c6.035,0,11.932,0,17.63,0
	c37.686,0,66.5,0,66.5,0h47h30v-423H470z"/>
</g></g><g transform="translate(621,1518) scale(0.138,0.138)"><g transform="" style="fill: rgb(40, 56, 61);">
<polygon points="250,38.5 0,38.5 0,461.5 250,461.5 500,461.5 500,38.5 "/>
</g></g><g transform="translate(690,1518) scale(0.138,0.138)"><g transform="" style="fill: rgb(40, 56, 61);">
<polygon points="250,38.5 0,38.5 0,461.5 250,461.5 500,461.5 500,38.5 "/>
</g></g><g transform="translate(759,1518) scale(0.138,0.138)"><g transform="" style="fill: rgb(40, 56, 61);">
<polygon points="250,38.5 0,38.5 0,461.5 250,461.5 500,461.5 500,38.5 "/>
</g></g><g transform="translate(828,1518) scale(0.138,0.138)"><g transform="" style="fill: rgb(40, 56, 61);">
<polygon points="250,38.5 0,38.5 0,461.5 250,461.5 500,461.5 500,38.5 "/>
</g></g><g transform="translate(897,1518) scale(0.138,0.138)"><g transform="" style="fill: rgb(40, 56, 61);">
<polygon points="250,38.5 0,38.5 0,461.5 250,461.5 500,461.5 500,38.5 "/>
</g></g><g transform="translate(966,1518) scale(0.138,0.138)"><g transform="" style="fill: rgb(40, 56, 61);">
<polygon points="250,38.5 0,38.5 0,461.5 250,461.5 500,461.5 500,38.5 "/>
</g></g><g transform="translate(1035,1518) scale(0.138,0.138)"><g transform="" style="fill: rgb(40, 56, 61);">
<polygon points="250,38.5 0,38.5 0,461.5 250,461.5 500,461.5 500,38.5 "/>
</g></g><g transform="translate(1104,1518) scale(0.138,0.138)"><g transform="" style="fill: rgb(40, 56, 61);">
<path d="M288.5,38.5c-42.907,0-123.188,0-171.55,0c-23.857,0-39.95,0-39.95,0H59.5H30H0v423h30h29.5H77c0,0,16.216,0,39.95,0
	c51.332,0,137.84,0,171.55,0C405.301,461.5,500,366.8,500,250C500,133.191,405.301,38.5,288.5,38.5z"/>
</g></g><g transform="translate(1242,1518) scale(0.138,0.138)"><g transform="" style="fill: rgb(40, 56, 61);">
<path  d="M470,38.5h-47c0,0-29.157,0-66.5,0c-5.711,0-11.611,0-17.63,0c-47.461,0-102.168,0-127.37,0
	C94.65,38.5,0,133.222,0,250c0,116.765,94.65,211.5,211.5,211.5c31.48,0,83.041,0,127.37,0c6.035,0,11.932,0,17.63,0
	c37.686,0,66.5,0,66.5,0h47h30v-423H470z"/>
</g></g><g transform="translate(1311,1518) scale(0.138,0.138)"><g transform="" style="fill: rgb(40, 56, 61);">
<polygon points="250,38.5 0,38.5 0,461.5 250,461.5 500,461.5 500,38.5 "/>
</g></g><g transform="translate(1380,1518) scale(0.138,0.138)"><g transform="" style="fill: rgb(40, 56, 61);">
<path d="M288.5,38.5c-42.907,0-123.188,0-171.55,0c-23.857,0-39.95,0-39.95,0H59.5H30H0v423h30h29.5H77c0,0,16.216,0,39.95,0
	c51.332,0,137.84,0,171.55,0C405.301,461.5,500,366.8,500,250C500,133.191,405.301,38.5,288.5,38.5z"/>
</g></g><g transform="translate(1518,1518) scale(0.138,0.138)"><g transform="" style="fill: rgb(40, 56, 61);">
<path d="M250,38.5c116.813,0,211.5,94.693,211.5,211.5c0,116.813-94.687,211.5-211.5,211.5c-116.807,0-211.5-94.687-211.5-211.5
	C38.5,133.193,133.193,38.5,250,38.5z"/>
</g></g><g transform="translate(1656,1518) scale(0.138,0.138)"><g transform="" style="fill: rgb(40, 56, 61);">
<path d="M250,38.5c116.813,0,211.5,94.693,211.5,211.5c0,116.813-94.687,211.5-211.5,211.5c-116.807,0-211.5-94.687-211.5-211.5
	C38.5,133.193,133.193,38.5,250,38.5z"/>
</g></g><g transform="translate(1932,1518) scale(0.138,0.138)"><g transform="" style="fill: rgb(40, 56, 61);">
<path d="M250,38.5c116.813,0,211.5,94.693,211.5,211.5c0,116.813-94.687,211.5-211.5,211.5c-116.807,0-211.5-94.687-211.5-211.5
	C38.5,133.193,133.193,38.5,250,38.5z"/>
</g></g><g transform="translate(552,1587) scale(0.138,0.138)"><g transform="" style="fill: rgb(40, 56, 61);">
<path d="M250,38.5c116.813,0,211.5,94.693,211.5,211.5c0,116.813-94.687,211.5-211.5,211.5c-116.807,0-211.5-94.687-211.5-211.5
	C38.5,133.193,133.193,38.5,250,38.5z"/>
</g></g><g transform="translate(690,1587) scale(0.138,0.138)"><g transform="" style="fill: rgb(40, 56, 61);">
<path d="M250,38.5c116.813,0,211.5,94.693,211.5,211.5c0,116.813-94.687,211.5-211.5,211.5c-116.807,0-211.5-94.687-211.5-211.5
	C38.5,133.193,133.193,38.5,250,38.5z"/>
</g></g><g transform="translate(966,1587) scale(0.138,0.138)"><g transform="" style="fill: rgb(40, 56, 61);">
<path d="M250,38.5c116.813,0,211.5,94.693,211.5,211.5c0,116.813-94.687,211.5-211.5,211.5c-116.807,0-211.5-94.687-211.5-211.5
	C38.5,133.193,133.193,38.5,250,38.5z"/>
</g></g><g transform="translate(1104,1587) scale(0.138,0.138)"><g transform="" style="fill: rgb(40, 56, 61);">
<path  d="M470,38.5h-47c0,0-29.157,0-66.5,0c-5.711,0-11.611,0-17.63,0c-47.461,0-102.168,0-127.37,0
	C94.65,38.5,0,133.222,0,250c0,116.765,94.65,211.5,211.5,211.5c31.48,0,83.041,0,127.37,0c6.035,0,11.932,0,17.63,0
	c37.686,0,66.5,0,66.5,0h47h30v-423H470z"/>
</g></g><g transform="translate(1173,1587) scale(0.138,0.138)"><g transform="" style="fill: rgb(40, 56, 61);">
<polygon points="250,38.5 0,38.5 0,461.5 250,461.5 500,461.5 500,38.5 "/>
</g></g><g transform="translate(1242,1587) scale(0.138,0.138)"><g transform="" style="fill: rgb(40, 56, 61);">
<polygon points="250,38.5 0,38.5 0,461.5 250,461.5 500,461.5 500,38.5 "/>
</g></g><g transform="translate(1311,1587) scale(0.138,0.138)"><g transform="" style="fill: rgb(40, 56, 61);">
<polygon points="250,38.5 0,38.5 0,461.5 250,461.5 500,461.5 500,38.5 "/>
</g></g><g transform="translate(1380,1587) scale(0.138,0.138)"><g transform="" style="fill: rgb(40, 56, 61);">
<path d="M288.5,38.5c-42.907,0-123.188,0-171.55,0c-23.857,0-39.95,0-39.95,0H59.5H30H0v423h30h29.5H77c0,0,16.216,0,39.95,0
	c51.332,0,137.84,0,171.55,0C405.301,461.5,500,366.8,500,250C500,133.191,405.301,38.5,288.5,38.5z"/>
</g></g><g transform="translate(1656,1587) scale(0.138,0.138)"><g transform="" style="fill: rgb(40, 56, 61);">
<path  d="M470,38.5h-47c0,0-29.157,0-66.5,0c-5.711,0-11.611,0-17.63,0c-47.461,0-102.168,0-127.37,0
	C94.65,38.5,0,133.222,0,250c0,116.765,94.65,211.5,211.5,211.5c31.48,0,83.041,0,127.37,0c6.035,0,11.932,0,17.63,0
	c37.686,0,66.5,0,66.5,0h47h30v-423H470z"/>
</g></g><g transform="translate(1725,1587) scale(0.138,0.138)"><g transform="" style="fill: rgb(40, 56, 61);">
<path d="M288.5,38.5c-42.907,0-123.188,0-171.55,0c-23.857,0-39.95,0-39.95,0H59.5H30H0v423h30h29.5H77c0,0,16.216,0,39.95,0
	c51.332,0,137.84,0,171.55,0C405.301,461.5,500,366.8,500,250C500,133.191,405.301,38.5,288.5,38.5z"/>
</g></g><g transform="translate(1863,1587) scale(0.138,0.138)"><g transform="" style="fill: rgb(40, 56, 61);">
<path  d="M470,38.5h-47c0,0-29.157,0-66.5,0c-5.711,0-11.611,0-17.63,0c-47.461,0-102.168,0-127.37,0
	C94.65,38.5,0,133.222,0,250c0,116.765,94.65,211.5,211.5,211.5c31.48,0,83.041,0,127.37,0c6.035,0,11.932,0,17.63,0
	c37.686,0,66.5,0,66.5,0h47h30v-423H470z"/>
</g></g><g transform="translate(1932,1587) scale(0.138,0.138)"><g transform="" style="fill: rgb(40, 56, 61);">
<path d="M288.5,38.5c-42.907,0-123.188,0-171.55,0c-23.857,0-39.95,0-39.95,0H59.5H30H0v423h30h29.5H77c0,0,16.216,0,39.95,0
	c51.332,0,137.84,0,171.55,0C405.301,461.5,500,366.8,500,250C500,133.191,405.301,38.5,288.5,38.5z"/>
</g></g><g transform="translate(552,1656) scale(0.138,0.138)"><g transform="" style="fill: rgb(40, 56, 61);">
<path d="M250,38.5c116.813,0,211.5,94.693,211.5,211.5c0,116.813-94.687,211.5-211.5,211.5c-116.807,0-211.5-94.687-211.5-211.5
	C38.5,133.193,133.193,38.5,250,38.5z"/>
</g></g><g transform="translate(690,1656) scale(0.138,0.138)"><g transform="" style="fill: rgb(40, 56, 61);">
<path d="M250,38.5c116.813,0,211.5,94.693,211.5,211.5c0,116.813-94.687,211.5-211.5,211.5c-116.807,0-211.5-94.687-211.5-211.5
	C38.5,133.193,133.193,38.5,250,38.5z"/>
</g></g><g transform="translate(828,1656) scale(0.138,0.138)"><g transform="" style="fill: rgb(40, 56, 61);">
<path d="M250,38.5c116.813,0,211.5,94.693,211.5,211.5c0,116.813-94.687,211.5-211.5,211.5c-116.807,0-211.5-94.687-211.5-211.5
	C38.5,133.193,133.193,38.5,250,38.5z"/>
</g></g><g transform="translate(966,1656) scale(0.138,0.138)"><g transform="" style="fill: rgb(40, 56, 61);">
<path  d="M470,38.5h-47c0,0-29.157,0-66.5,0c-5.711,0-11.611,0-17.63,0c-47.461,0-102.168,0-127.37,0
	C94.65,38.5,0,133.222,0,250c0,116.765,94.65,211.5,211.5,211.5c31.48,0,83.041,0,127.37,0c6.035,0,11.932,0,17.63,0
	c37.686,0,66.5,0,66.5,0h47h30v-423H470z"/>
</g></g><g transform="translate(1035,1656) scale(0.138,0.138)"><g transform="" style="fill: rgb(40, 56, 61);">
<path d="M288.5,38.5c-42.907,0-123.188,0-171.55,0c-23.857,0-39.95,0-39.95,0H59.5H30H0v423h30h29.5H77c0,0,16.216,0,39.95,0
	c51.332,0,137.84,0,171.55,0C405.301,461.5,500,366.8,500,250C500,133.191,405.301,38.5,288.5,38.5z"/>
</g></g><g transform="translate(1173,1656) scale(0.138,0.138)"><g transform="" style="fill: rgb(40, 56, 61);">
<path d="M250,38.5c116.813,0,211.5,94.693,211.5,211.5c0,116.813-94.687,211.5-211.5,211.5c-116.807,0-211.5-94.687-211.5-211.5
	C38.5,133.193,133.193,38.5,250,38.5z"/>
</g></g><g transform="translate(1311,1656) scale(0.138,0.138)"><g transform="" style="fill: rgb(40, 56, 61);">
<path  d="M470,38.5h-47c0,0-29.157,0-66.5,0c-5.711,0-11.611,0-17.63,0c-47.461,0-102.168,0-127.37,0
	C94.65,38.5,0,133.222,0,250c0,116.765,94.65,211.5,211.5,211.5c31.48,0,83.041,0,127.37,0c6.035,0,11.932,0,17.63,0
	c37.686,0,66.5,0,66.5,0h47h30v-423H470z"/>
</g></g><g transform="translate(1380,1656) scale(0.138,0.138)"><g transform="" style="fill: rgb(40, 56, 61);">
<polygon points="250,38.5 0,38.5 0,461.5 250,461.5 500,461.5 500,38.5 "/>
</g></g><g transform="translate(1449,1656) scale(0.138,0.138)"><g transform="" style="fill: rgb(40, 56, 61);">
<polygon points="250,38.5 0,38.5 0,461.5 250,461.5 500,461.5 500,38.5 "/>
</g></g><g transform="translate(1518,1656) scale(0.138,0.138)"><g transform="" style="fill: rgb(40, 56, 61);">
<polygon points="250,38.5 0,38.5 0,461.5 250,461.5 500,461.5 500,38.5 "/>
</g></g><g transform="translate(1587,1656) scale(0.138,0.138)"><g transform="" style="fill: rgb(40, 56, 61);">
<polygon points="250,38.5 0,38.5 0,461.5 250,461.5 500,461.5 500,38.5 "/>
</g></g><g transform="translate(1656,1656) scale(0.138,0.138)"><g transform="" style="fill: rgb(40, 56, 61);">
<path d="M288.5,38.5c-42.907,0-123.188,0-171.55,0c-23.857,0-39.95,0-39.95,0H59.5H30H0v423h30h29.5H77c0,0,16.216,0,39.95,0
	c51.332,0,137.84,0,171.55,0C405.301,461.5,500,366.8,500,250C500,133.191,405.301,38.5,288.5,38.5z"/>
</g></g><g transform="translate(1932,1656) scale(0.138,0.138)"><g transform="" style="fill: rgb(40, 56, 61);">
<path d="M250,38.5c116.813,0,211.5,94.693,211.5,211.5c0,116.813-94.687,211.5-211.5,211.5c-116.807,0-211.5-94.687-211.5-211.5
	C38.5,133.193,133.193,38.5,250,38.5z"/>
</g></g><g transform="translate(621,1725) scale(0.138,0.138)"><g transform="" style="fill: rgb(40, 56, 61);">
<path d="M250,38.5c116.813,0,211.5,94.693,211.5,211.5c0,116.813-94.687,211.5-211.5,211.5c-116.807,0-211.5-94.687-211.5-211.5
	C38.5,133.193,133.193,38.5,250,38.5z"/>
</g></g><g transform="translate(828,1725) scale(0.138,0.138)"><g transform="" style="fill: rgb(40, 56, 61);">
<path d="M250,38.5c116.813,0,211.5,94.693,211.5,211.5c0,116.813-94.687,211.5-211.5,211.5c-116.807,0-211.5-94.687-211.5-211.5
	C38.5,133.193,133.193,38.5,250,38.5z"/>
</g></g><g transform="translate(1104,1725) scale(0.138,0.138)"><g transform="" style="fill: rgb(40, 56, 61);">
<path  d="M470,38.5h-47c0,0-29.157,0-66.5,0c-5.711,0-11.611,0-17.63,0c-47.461,0-102.168,0-127.37,0
	C94.65,38.5,0,133.222,0,250c0,116.765,94.65,211.5,211.5,211.5c31.48,0,83.041,0,127.37,0c6.035,0,11.932,0,17.63,0
	c37.686,0,66.5,0,66.5,0h47h30v-423H470z"/>
</g></g><g transform="translate(1173,1725) scale(0.138,0.138)"><g transform="" style="fill: rgb(40, 56, 61);">
<path d="M288.5,38.5c-42.907,0-123.188,0-171.55,0c-23.857,0-39.95,0-39.95,0H59.5H30H0v423h30h29.5H77c0,0,16.216,0,39.95,0
	c51.332,0,137.84,0,171.55,0C405.301,461.5,500,366.8,500,250C500,133.191,405.301,38.5,288.5,38.5z"/>
</g></g><g transform="translate(1587,1725) scale(0.138,0.138)"><g transform="" style="fill: rgb(40, 56, 61);">
<path d="M250,38.5c116.813,0,211.5,94.693,211.5,211.5c0,116.813-94.687,211.5-211.5,211.5c-116.807,0-211.5-94.687-211.5-211.5
	C38.5,133.193,133.193,38.5,250,38.5z"/>
</g></g><g transform="translate(1863,1725) scale(0.138,0.138)"><g transform="" style="fill: rgb(40, 56, 61);">
<path d="M250,38.5c116.813,0,211.5,94.693,211.5,211.5c0,116.813-94.687,211.5-211.5,211.5c-116.807,0-211.5-94.687-211.5-211.5
	C38.5,133.193,133.193,38.5,250,38.5z"/>
</g></g><g transform="translate(966,1794) scale(0.138,0.138)"><g transform="" style="fill: rgb(40, 56, 61);">
<path  d="M470,38.5h-47c0,0-29.157,0-66.5,0c-5.711,0-11.611,0-17.63,0c-47.461,0-102.168,0-127.37,0
	C94.65,38.5,0,133.222,0,250c0,116.765,94.65,211.5,211.5,211.5c31.48,0,83.041,0,127.37,0c6.035,0,11.932,0,17.63,0
	c37.686,0,66.5,0,66.5,0h47h30v-423H470z"/>
</g></g><g transform="translate(1035,1794) scale(0.138,0.138)"><g transform="" style="fill: rgb(40, 56, 61);">
<polygon points="250,38.5 0,38.5 0,461.5 250,461.5 500,461.5 500,38.5 "/>
</g></g><g transform="translate(1104,1794) scale(0.138,0.138)"><g transform="" style="fill: rgb(40, 56, 61);">
<polygon points="250,38.5 0,38.5 0,461.5 250,461.5 500,461.5 500,38.5 "/>
</g></g><g transform="translate(1173,1794) scale(0.138,0.138)"><g transform="" style="fill: rgb(40, 56, 61);">
<path d="M288.5,38.5c-42.907,0-123.188,0-171.55,0c-23.857,0-39.95,0-39.95,0H59.5H30H0v423h30h29.5H77c0,0,16.216,0,39.95,0
	c51.332,0,137.84,0,171.55,0C405.301,461.5,500,366.8,500,250C500,133.191,405.301,38.5,288.5,38.5z"/>
</g></g><g transform="translate(1311,1794) scale(0.138,0.138)"><g transform="" style="fill: rgb(40, 56, 61);">
<path  d="M470,38.5h-47c0,0-29.157,0-66.5,0c-5.711,0-11.611,0-17.63,0c-47.461,0-102.168,0-127.37,0
	C94.65,38.5,0,133.222,0,250c0,116.765,94.65,211.5,211.5,211.5c31.48,0,83.041,0,127.37,0c6.035,0,11.932,0,17.63,0
	c37.686,0,66.5,0,66.5,0h47h30v-423H470z"/>
</g></g><g transform="translate(1380,1794) scale(0.138,0.138)"><g transform="" style="fill: rgb(40, 56, 61);">
<polygon points="250,38.5 0,38.5 0,461.5 250,461.5 500,461.5 500,38.5 "/>
</g></g><g transform="translate(1449,1794) scale(0.138,0.138)"><g transform="" style="fill: rgb(40, 56, 61);">
<path d="M288.5,38.5c-42.907,0-123.188,0-171.55,0c-23.857,0-39.95,0-39.95,0H59.5H30H0v423h30h29.5H77c0,0,16.216,0,39.95,0
	c51.332,0,137.84,0,171.55,0C405.301,461.5,500,366.8,500,250C500,133.191,405.301,38.5,288.5,38.5z"/>
</g></g><g transform="translate(1794,1794) scale(0.138,0.138)"><g transform="" style="fill: rgb(40, 56, 61);">
<path  d="M470,38.5h-47c0,0-29.157,0-66.5,0c-5.711,0-11.611,0-17.63,0c-47.461,0-102.168,0-127.37,0
	C94.65,38.5,0,133.222,0,250c0,116.765,94.65,211.5,211.5,211.5c31.48,0,83.041,0,127.37,0c6.035,0,11.932,0,17.63,0
	c37.686,0,66.5,0,66.5,0h47h30v-423H470z"/>
</g></g><g transform="translate(1863,1794) scale(0.138,0.138)"><g transform="" style="fill: rgb(40, 56, 61);">
<polygon points="250,38.5 0,38.5 0,461.5 250,461.5 500,461.5 500,38.5 "/>
</g></g><g transform="translate(1932,1794) scale(0.138,0.138)"><g transform="" style="fill: rgb(40, 56, 61);">
<path d="M288.5,38.5c-42.907,0-123.188,0-171.55,0c-23.857,0-39.95,0-39.95,0H59.5H30H0v423h30h29.5H77c0,0,16.216,0,39.95,0
	c51.332,0,137.84,0,171.55,0C405.301,461.5,500,366.8,500,250C500,133.191,405.301,38.5,288.5,38.5z"/>
</g></g><g transform="translate(621,1863) scale(0.138,0.138)"><g transform="" style="fill: rgb(40, 56, 61);">
<path d="M250,38.5c116.813,0,211.5,94.693,211.5,211.5c0,116.813-94.687,211.5-211.5,211.5c-116.807,0-211.5-94.687-211.5-211.5
	C38.5,133.193,133.193,38.5,250,38.5z"/>
</g></g><g transform="translate(759,1863) scale(0.138,0.138)"><g transform="" style="fill: rgb(40, 56, 61);">
<path d="M250,38.5c116.813,0,211.5,94.693,211.5,211.5c0,116.813-94.687,211.5-211.5,211.5c-116.807,0-211.5-94.687-211.5-211.5
	C38.5,133.193,133.193,38.5,250,38.5z"/>
</g></g><g transform="translate(897,1863) scale(0.138,0.138)"><g transform="" style="fill: rgb(40, 56, 61);">
<path  d="M470,38.5h-47c0,0-29.157,0-66.5,0c-5.711,0-11.611,0-17.63,0c-47.461,0-102.168,0-127.37,0
	C94.65,38.5,0,133.222,0,250c0,116.765,94.65,211.5,211.5,211.5c31.48,0,83.041,0,127.37,0c6.035,0,11.932,0,17.63,0
	c37.686,0,66.5,0,66.5,0h47h30v-423H470z"/>
</g></g><g transform="translate(966,1863) scale(0.138,0.138)"><g transform="" style="fill: rgb(40, 56, 61);">
<path d="M288.5,38.5c-42.907,0-123.188,0-171.55,0c-23.857,0-39.95,0-39.95,0H59.5H30H0v423h30h29.5H77c0,0,16.216,0,39.95,0
	c51.332,0,137.84,0,171.55,0C405.301,461.5,500,366.8,500,250C500,133.191,405.301,38.5,288.5,38.5z"/>
</g></g><g transform="translate(1104,1863) scale(0.138,0.138)"><g transform="" style="fill: rgb(40, 56, 61);">
<path d="M250,38.5c116.813,0,211.5,94.693,211.5,211.5c0,116.813-94.687,211.5-211.5,211.5c-116.807,0-211.5-94.687-211.5-211.5
	C38.5,133.193,133.193,38.5,250,38.5z"/>
</g></g><g transform="translate(1380,1863) scale(0.138,0.138)"><g transform="" style="fill: rgb(40, 56, 61);">
<path d="M250,38.5c116.813,0,211.5,94.693,211.5,211.5c0,116.813-94.687,211.5-211.5,211.5c-116.807,0-211.5-94.687-211.5-211.5
	C38.5,133.193,133.193,38.5,250,38.5z"/>
</g></g><g transform="translate(1587,1863) scale(0.138,0.138)"><g transform="" style="fill: rgb(40, 56, 61);">
<path d="M250,38.5c116.813,0,211.5,94.693,211.5,211.5c0,116.813-94.687,211.5-211.5,211.5c-116.807,0-211.5-94.687-211.5-211.5
	C38.5,133.193,133.193,38.5,250,38.5z"/>
</g></g><g transform="translate(1725,1863) scale(0.138,0.138)"><g transform="" style="fill: rgb(40, 56, 61);">
<path d="M250,38.5c116.813,0,211.5,94.693,211.5,211.5c0,116.813-94.687,211.5-211.5,211.5c-116.807,0-211.5-94.687-211.5-211.5
	C38.5,133.193,133.193,38.5,250,38.5z"/>
</g></g><g transform="translate(1863,1863) scale(0.138,0.138)"><g transform="" style="fill: rgb(40, 56, 61);">
<path  d="M470,38.5h-47c0,0-29.157,0-66.5,0c-5.711,0-11.611,0-17.63,0c-47.461,0-102.168,0-127.37,0
	C94.65,38.5,0,133.222,0,250c0,116.765,94.65,211.5,211.5,211.5c31.48,0,83.041,0,127.37,0c6.035,0,11.932,0,17.63,0
	c37.686,0,66.5,0,66.5,0h47h30v-423H470z"/>
</g></g><g transform="translate(1932,1863) scale(0.138,0.138)"><g transform="" style="fill: rgb(40, 56, 61);">
<path d="M288.5,38.5c-42.907,0-123.188,0-171.55,0c-23.857,0-39.95,0-39.95,0H59.5H30H0v423h30h29.5H77c0,0,16.216,0,39.95,0
	c51.332,0,137.84,0,171.55,0C405.301,461.5,500,366.8,500,250C500,133.191,405.301,38.5,288.5,38.5z"/>
</g></g><g transform="translate(621,1932) scale(0.138,0.138)"><g transform="" style="fill: rgb(40, 56, 61);">
<path  d="M470,38.5h-47c0,0-29.157,0-66.5,0c-5.711,0-11.611,0-17.63,0c-47.461,0-102.168,0-127.37,0
	C94.65,38.5,0,133.222,0,250c0,116.765,94.65,211.5,211.5,211.5c31.48,0,83.041,0,127.37,0c6.035,0,11.932,0,17.63,0
	c37.686,0,66.5,0,66.5,0h47h30v-423H470z"/>
</g></g><g transform="translate(690,1932) scale(0.138,0.138)"><g transform="" style="fill: rgb(40, 56, 61);">
<path d="M288.5,38.5c-42.907,0-123.188,0-171.55,0c-23.857,0-39.95,0-39.95,0H59.5H30H0v423h30h29.5H77c0,0,16.216,0,39.95,0
	c51.332,0,137.84,0,171.55,0C405.301,461.5,500,366.8,500,250C500,133.191,405.301,38.5,288.5,38.5z"/>
</g></g><g transform="translate(828,1932) scale(0.138,0.138)"><g transform="" style="fill: rgb(40, 56, 61);">
<path d="M250,38.5c116.813,0,211.5,94.693,211.5,211.5c0,116.813-94.687,211.5-211.5,211.5c-116.807,0-211.5-94.687-211.5-211.5
	C38.5,133.193,133.193,38.5,250,38.5z"/>
</g></g><g transform="translate(966,1932) scale(0.138,0.138)"><g transform="" style="fill: rgb(40, 56, 61);">
<path d="M250,38.5c116.813,0,211.5,94.693,211.5,211.5c0,116.813-94.687,211.5-211.5,211.5c-116.807,0-211.5-94.687-211.5-211.5
	C38.5,133.193,133.193,38.5,250,38.5z"/>
</g></g><g transform="translate(1173,1932) scale(0.138,0.138)"><g transform="" style="fill: rgb(40, 56, 61);">
<path  d="M470,38.5h-47c0,0-29.157,0-66.5,0c-5.711,0-11.611,0-17.63,0c-47.461,0-102.168,0-127.37,0
	C94.65,38.5,0,133.222,0,250c0,116.765,94.65,211.5,211.5,211.5c31.48,0,83.041,0,127.37,0c6.035,0,11.932,0,17.63,0
	c37.686,0,66.5,0,66.5,0h47h30v-423H470z"/>
</g></g><g transform="translate(1242,1932) scale(0.138,0.138)"><g transform="" style="fill: rgb(40, 56, 61);">
<path d="M288.5,38.5c-42.907,0-123.188,0-171.55,0c-23.857,0-39.95,0-39.95,0H59.5H30H0v423h30h29.5H77c0,0,16.216,0,39.95,0
	c51.332,0,137.84,0,171.55,0C405.301,461.5,500,366.8,500,250C500,133.191,405.301,38.5,288.5,38.5z"/>
</g></g><g transform="translate(1380,1932) scale(0.138,0.138)"><g transform="" style="fill: rgb(40, 56, 61);">
<path  d="M470,38.5h-47c0,0-29.157,0-66.5,0c-5.711,0-11.611,0-17.63,0c-47.461,0-102.168,0-127.37,0
	C94.65,38.5,0,133.222,0,250c0,116.765,94.65,211.5,211.5,211.5c31.48,0,83.041,0,127.37,0c6.035,0,11.932,0,17.63,0
	c37.686,0,66.5,0,66.5,0h47h30v-423H470z"/>
</g></g><g transform="translate(1449,1932) scale(0.138,0.138)"><g transform="" style="fill: rgb(40, 56, 61);">
<polygon points="250,38.5 0,38.5 0,461.5 250,461.5 500,461.5 500,38.5 "/>
</g></g><g transform="translate(1518,1932) scale(0.138,0.138)"><g transform="" style="fill: rgb(40, 56, 61);">
<path d="M288.5,38.5c-42.907,0-123.188,0-171.55,0c-23.857,0-39.95,0-39.95,0H59.5H30H0v423h30h29.5H77c0,0,16.216,0,39.95,0
	c51.332,0,137.84,0,171.55,0C405.301,461.5,500,366.8,500,250C500,133.191,405.301,38.5,288.5,38.5z"/>
</g></g><g transform="translate(1656,1932) scale(0.138,0.138)"><g transform="" style="fill: rgb(40, 56, 61);">
<path  d="M470,38.5h-47c0,0-29.157,0-66.5,0c-5.711,0-11.611,0-17.63,0c-47.461,0-102.168,0-127.37,0
	C94.65,38.5,0,133.222,0,250c0,116.765,94.65,211.5,211.5,211.5c31.48,0,83.041,0,127.37,0c6.035,0,11.932,0,17.63,0
	c37.686,0,66.5,0,66.5,0h47h30v-423H470z"/>
</g></g><g transform="translate(1725,1932) scale(0.138,0.138)"><g transform="" style="fill: rgb(40, 56, 61);">
<path d="M288.5,38.5c-42.907,0-123.188,0-171.55,0c-23.857,0-39.95,0-39.95,0H59.5H30H0v423h30h29.5H77c0,0,16.216,0,39.95,0
	c51.332,0,137.84,0,171.55,0C405.301,461.5,500,366.8,500,250C500,133.191,405.301,38.5,288.5,38.5z"/>
</g></g><g transform="translate(1863,1932) scale(0.138,0.138)"><g transform="" style="fill: rgb(40, 56, 61);">
<path d="M250,38.5c116.813,0,211.5,94.693,211.5,211.5c0,116.813-94.687,211.5-211.5,211.5c-116.807,0-211.5-94.687-211.5-211.5
	C38.5,133.193,133.193,38.5,250,38.5z"/>
</g></g><g transform="translate(0,0) scale(4.83, 4.83)"><g transform=" translate(100, 0) scale(-1,1) " style="fill: rgb(40, 56, 61);">
<g>
	<path style="fill:none;" d="M85,66.221V33.75C85,23.411,76.414,15,65.859,15H34.14C23.586,15,15,23.411,15,33.75v51.246
		l50.855-0.016C76.414,84.98,85,76.564,85,66.221z"/>
	<path d="M100,66.221V33.75C100,15.141,84.68,0,65.859,0H34.14C15.32,0,0,15.141,0,33.75V100l65.859-0.02
		C84.68,99.98,100,84.84,100,66.221z M85,66.221c0,10.344-8.586,18.76-19.145,18.76L15,84.996V33.75C15,23.411,23.586,15,34.14,15
		h31.719C76.414,15,85,23.411,85,33.75V66.221z"/>
</g>
</g></g><g transform="translate(1518,0) scale(4.83, 4.83)"><g transform="" style="fill: rgb(40, 56, 61);">
<g>
	<path style="fill:none;" d="M85,66.221V33.75C85,23.411,76.414,15,65.859,15H34.14C23.586,15,15,23.411,15,33.75v51.246
		l50.855-0.016C76.414,84.98,85,76.564,85,66.221z"/>
	<path d="M100,66.221V33.75C100,15.141,84.68,0,65.859,0H34.14C15.32,0,0,15.141,0,33.75V100l65.859-0.02
		C84.68,99.98,100,84.84,100,66.221z M85,66.221c0,10.344-8.586,18.76-19.145,18.76L15,84.996V33.75C15,23.411,23.586,15,34.14,15
		h31.719C76.414,15,85,23.411,85,33.75V66.221z"/>
</g>
</g></g><g transform="translate(0,1518) scale(4.83, 4.83)"><g transform=" translate(100, 0) scale(-1,1)  translate(0,100) scale(1,-1) " style="fill: rgb(40, 56, 61);">
<g>
	<path style="fill:none;" d="M85,66.221V33.75C85,23.411,76.414,15,65.859,15H34.14C23.586,15,15,23.411,15,33.75v51.246
		l50.855-0.016C76.414,84.98,85,76.564,85,66.221z"/>
	<path d="M100,66.221V33.75C100,15.141,84.68,0,65.859,0H34.14C15.32,0,0,15.141,0,33.75V100l65.859-0.02
		C84.68,99.98,100,84.84,100,66.221z M85,66.221c0,10.344-8.586,18.76-19.145,18.76L15,84.996V33.75C15,23.411,23.586,15,34.14,15
		h31.719C76.414,15,85,23.411,85,33.75V66.221z"/>
</g>
</g></g><g transform="translate(138,138) scale(2.07, 2.07)"><g transform=" translate(100, 0) scale(-1,1) " style="fill: rgb(40, 56, 61);">
<path d="M100,72.779V27.195C100,12.203,87.604,0,72.37,0H27.63C12.397,0,0,12.203,0,27.195V100l72.37-0.042
	C87.604,99.958,100,87.771,100,72.779z"/>
</g></g><g transform="translate(1656,138) scale(2.07, 2.07)"><g transform="" style="fill: rgb(40, 56, 61);">
<path d="M100,72.779V27.195C100,12.203,87.604,0,72.37,0H27.63C12.397,0,0,12.203,0,27.195V100l72.37-0.042
	C87.604,99.958,100,87.771,100,72.779z"/>
</g></g><g transform="translate(138,1656) scale(2.07, 2.07)"><g transform=" translate(100, 0) scale(-1,1)  translate(0,100) scale(1,-1) " style="fill: rgb(40, 56, 61);">
<path d="M100,72.779V27.195C100,12.203,87.604,0,72.37,0H27.63C12.397,0,0,12.203,0,27.195V100l72.37-0.042
	C87.604,99.958,100,87.771,100,72.779z"/>
</g></g><g transform="translate(621,828) scale(0.138,0.138)" width="759" height="345"><svg xmlns="http://www.w3.org/2000/svg" width="5500" height="2500" viewBox="0 0 4500 2500">
    <path d="m 36.764467,624.21263 0,41.3603 0,565.25737 c 0,171.8037 131.894123,311.9088 299.431623,327.8654 l 45.2375,0 0,-41.3588 0,-27.1426 0,-40.9265 -37.05221,0 C 233.67035,1437.4237 147.05859,1344.634 147.05859,1230.834 l 0,-82.7206 193.0147,0 41.3603,0 0,-41.3603 0,-27.5736 0,-41.3595 -41.3603,0 -193.0147,0 0,-372.24266 0,-41.3603 -41.3603,0 -27.573529,0 z" fill="#28383D"/>
    <path d="m 882.3527,899.94793 c -182.47647,0 -330.88235,148.40587 -330.88235,330.88237 0,182.4765 148.40588,330.8823 330.88235,330.8823 l 261.9485,0 27.5736,0 41.3603,0 0,-41.3603 0,-55.147 0,-234.375 c 0,-182.4758 -148.4067,-330.88237 -330.8824,-330.88237 z m 0,110.29407 c 121.8802,0 220.5882,98.7103 220.5882,220.5883 l 0,220.5882 -220.5882,0 c -121.87867,0 -220.58823,-98.7103 -220.58823,-220.5882 0,-121.8772 98.70956,-220.5883 220.58823,-220.5883 z" fill="#28383D"/>
    <path d="m 1691.1762,899.94793 c -182.4779,0 -330.8823,148.40587 -330.8823,330.88237 0,182.4765 148.4044,330.8823 330.8823,330.8823 l 219.2942,0 c -6.7648,107.3324 -89.8898,193.2912 -196.0295,204.6471 l -37.0514,0 0,40.9265 0,27.1426 0,41.3588 45.2353,0 c 167.5367,-15.9566 299.4338,-156.0617 299.4338,-327.8661 l 0,-82.7206 0,-234.375 c 0,-182.4758 -148.4044,-330.88238 -330.8824,-330.88238 z m 0,110.29407 c 121.8824,0 220.5883,98.7103 220.5883,220.5883 l 0,220.5882 -220.5883,0 c -121.8823,0 -220.5882,-98.7103 -220.5882,-220.5882 0,-121.8772 98.7059,-220.5883 220.5882,-220.5883 z" fill="#28383D"/>
    <path d="m 2183.8233,624.21263 0,41.3603 0,565.25737 0,289.522 0,41.3603 41.3603,0 27.5735,0 41.3603,0 0,-41.3603 0,-289.522 c 0,-121.8772 98.7133,-220.5883 220.5883,-220.5883 121.8823,0 220.5882,98.7103 220.5882,220.5883 l 0,289.522 0,41.3603 41.3603,0 27.5735,0 41.3603,0 0,-41.3603 0,-289.522 c 0,-182.4758 -148.4044,-330.88237 -330.8823,-330.88237 -85.7868,0 -161.8383,35.09412 -220.5883,88.7522 l 0,-323.1272 0,-41.3603 -41.3603,0 -27.5735,0 z" fill="#28383D"/>
    <path d="m 2992.6468,899.94793 0,41.36029 0,289.52208 c 0,182.4765 148.4044,330.8823 330.8824,330.8823 182.4779,0 330.8823,-148.4058 330.8823,-330.8823 l 0,-289.52208 0,-41.36029 -41.3603,0 -27.5735,0 -41.3603,0 0,41.36029 0,289.52208 c 0,121.8779 -98.7132,220.5882 -220.5882,220.5882 -121.8824,0 -220.5883,-98.7103 -220.5883,-220.5882 l 0,-289.52208 0,-41.36029 -41.3602,0 -27.5736,0 z" fill="#28383D"/>
    <path d="m 3801.4704,624.21263 0,41.3603 0,248.16176 0,82.72059 0,234.37502 c 0,182.4765 148.4044,330.8823 330.8823,330.8823 182.478,0 330.8824,-148.4058 330.8824,-330.8823 0,-182.4758 -148.4044,-330.88237 -330.8824,-330.88237 l -220.5882,0 0,-234.375 0,-41.3603 -41.3603,0 -27.5735,0 -41.3603,0 z m 110.2941,386.02937 220.5882,0 c 121.8824,0 220.5883,98.7103 220.5883,220.5883 0,121.8779 -98.7059,220.5882 -220.5883,220.5882 -121.875,0 -220.5882,-98.7103 -220.5882,-220.5882 l 0,-220.5883 z" fill="#28383D"/>
</svg>
</g></g></svg>